<svg width="1440" height="228" viewBox="0 0 1440 228" fill="none" xmlns="http://www.w3.org/2000/svg">
<g filter="url(#filter0_d_3_60)">
<rect width="1440" height="214" fill="white"/>
<path d="M1118.5 173.5H1367" stroke="#CCC2C2" stroke-width="2" stroke-linecap="round"/>
<path d="M1118.5 173.5H1287" stroke="#222222" stroke-width="2" stroke-linecap="round"/>
<path d="M386 140V188" stroke="#EAEAEA" stroke-width="2"/>
<path d="M720 140V188" stroke="#EAEAEA" stroke-width="2"/>
<path d="M1054 140V188" stroke="#EAEAEA" stroke-width="2"/>
<path d="M76 168L82 174M71 170C67.134 170 64 166.866 64 163C64 159.134 67.134 156 71 156C74.866 156 78 159.134 78 163C78 166.866 74.866 170 71 170Z" stroke="#686868" stroke-width="1.5" stroke-linecap="round" stroke-linejoin="round"/>
<path d="M109.985 163.552C109.985 162.891 110.15 162.309 110.481 161.808C110.811 161.307 111.275 160.917 111.873 160.64C112.481 160.363 113.179 160.224 113.969 160.224C114.705 160.224 115.345 160.357 115.889 160.624C116.443 160.88 116.875 161.248 117.185 161.728C117.505 162.208 117.686 162.784 117.729 163.456H116.145C116.102 162.88 115.889 162.432 115.505 162.112C115.121 161.792 114.603 161.632 113.953 161.632C113.227 161.632 112.646 161.803 112.209 162.144C111.771 162.475 111.553 162.928 111.553 163.504C111.553 163.973 111.686 164.352 111.953 164.64C112.219 164.917 112.625 165.12 113.169 165.248L115.073 165.696C116.022 165.909 116.731 166.277 117.201 166.8C117.681 167.312 117.921 167.973 117.921 168.784C117.921 169.477 117.75 170.08 117.409 170.592C117.078 171.104 116.603 171.499 115.985 171.776C115.377 172.053 114.662 172.192 113.841 172.192C113.062 172.192 112.374 172.064 111.777 171.808C111.19 171.541 110.726 171.168 110.385 170.688C110.054 170.197 109.867 169.627 109.825 168.976H111.424C111.435 169.531 111.659 169.973 112.097 170.304C112.534 170.624 113.115 170.784 113.841 170.784C114.609 170.784 115.217 170.613 115.665 170.272C116.123 169.931 116.353 169.477 116.353 168.912C116.353 168.453 116.225 168.08 115.969 167.792C115.713 167.504 115.307 167.296 114.753 167.168L112.849 166.736C111.91 166.523 111.195 166.149 110.705 165.616C110.225 165.072 109.985 164.384 109.985 163.552ZM123.011 172.192C122.254 172.192 121.582 172.021 120.995 171.68C120.408 171.328 119.95 170.848 119.619 170.24C119.288 169.621 119.123 168.907 119.123 168.096C119.123 167.275 119.283 166.555 119.603 165.936C119.934 165.317 120.382 164.832 120.947 164.48C121.523 164.128 122.19 163.952 122.947 163.952C123.694 163.952 124.339 164.112 124.883 164.432C125.438 164.752 125.864 165.2 126.163 165.776C126.472 166.352 126.627 167.029 126.627 167.808V168.368L119.923 168.384L119.955 167.376H125.123C125.123 166.725 124.926 166.203 124.531 165.808C124.136 165.413 123.608 165.216 122.947 165.216C122.446 165.216 122.014 165.328 121.651 165.552C121.299 165.765 121.027 166.085 120.835 166.512C120.654 166.928 120.563 167.429 120.563 168.016C120.563 168.955 120.776 169.68 121.203 170.192C121.63 170.693 122.243 170.944 123.043 170.944C123.63 170.944 124.11 170.827 124.483 170.592C124.856 170.357 125.107 170.016 125.235 169.568H126.643C126.451 170.4 126.04 171.045 125.411 171.504C124.782 171.963 123.982 172.192 123.011 172.192ZM130.517 172.192C129.685 172.192 129.029 171.973 128.549 171.536C128.079 171.099 127.845 170.528 127.845 169.824C127.845 169.109 128.101 168.539 128.613 168.112C129.125 167.675 129.839 167.419 130.757 167.344L133.221 167.152V166.928C133.221 166.491 133.141 166.144 132.981 165.888C132.821 165.621 132.602 165.435 132.325 165.328C132.047 165.211 131.733 165.152 131.381 165.152C130.751 165.152 130.261 165.285 129.909 165.552C129.567 165.808 129.397 166.176 129.397 166.656H128.085C128.085 166.112 128.223 165.637 128.501 165.232C128.778 164.827 129.167 164.512 129.669 164.288C130.181 164.064 130.773 163.952 131.445 163.952C132.095 163.952 132.661 164.069 133.141 164.304C133.631 164.528 134.01 164.875 134.277 165.344C134.554 165.803 134.693 166.384 134.693 167.088V172H133.413L133.253 170.736C133.05 171.184 132.698 171.541 132.197 171.808C131.706 172.064 131.146 172.192 130.517 172.192ZM130.949 171.024C131.663 171.024 132.223 170.811 132.629 170.384C133.034 169.947 133.237 169.36 133.237 168.624V168.208L131.237 168.368C130.575 168.432 130.095 168.587 129.797 168.832C129.509 169.077 129.365 169.392 129.365 169.776C129.365 170.192 129.503 170.507 129.781 170.72C130.069 170.923 130.458 171.024 130.949 171.024ZM141.256 164.112V165.488H140.584C139.869 165.488 139.304 165.696 138.888 166.112C138.482 166.517 138.28 167.099 138.28 167.856V172H136.776V164.192H138.184L138.312 165.76H138.168C138.274 165.248 138.53 164.832 138.936 164.512C139.341 164.181 139.848 164.016 140.456 164.016C140.594 164.016 140.722 164.027 140.84 164.048C140.968 164.059 141.106 164.08 141.256 164.112ZM141.873 168.096C141.873 167.275 142.033 166.555 142.353 165.936C142.684 165.317 143.137 164.832 143.713 164.48C144.289 164.128 144.956 163.952 145.713 163.952C146.694 163.952 147.51 164.213 148.161 164.736C148.812 165.259 149.201 165.952 149.329 166.816H147.825C147.697 166.315 147.446 165.936 147.073 165.68C146.7 165.424 146.262 165.296 145.761 165.296C145.292 165.296 144.876 165.413 144.513 165.648C144.15 165.872 143.868 166.192 143.665 166.608C143.462 167.024 143.361 167.515 143.361 168.08C143.361 168.645 143.457 169.136 143.649 169.552C143.841 169.957 144.113 170.277 144.465 170.512C144.817 170.736 145.228 170.848 145.697 170.848C146.23 170.848 146.689 170.715 147.073 170.448C147.457 170.181 147.713 169.819 147.841 169.36H149.345C149.249 169.925 149.03 170.421 148.689 170.848C148.358 171.264 147.932 171.595 147.409 171.84C146.897 172.075 146.326 172.192 145.697 172.192C144.929 172.192 144.257 172.021 143.681 171.68C143.116 171.339 142.673 170.864 142.353 170.256C142.033 169.637 141.873 168.917 141.873 168.096ZM152.436 171.984H150.932V160.224H152.436V165.376C152.681 164.949 153.033 164.608 153.492 164.352C153.95 164.085 154.484 163.952 155.092 163.952C156.084 163.952 156.825 164.245 157.316 164.832C157.806 165.419 158.052 166.213 158.052 167.216V172H156.548V167.552C156.548 167.019 156.468 166.592 156.308 166.272C156.158 165.941 155.94 165.701 155.652 165.552C155.374 165.403 155.049 165.328 154.676 165.328C154.196 165.328 153.785 165.435 153.444 165.648C153.113 165.861 152.862 166.149 152.692 166.512C152.521 166.875 152.436 167.28 152.436 167.728V171.984ZM166.334 160.432V172H164.766V160.432H166.334ZM169.31 166.896H165.902V165.536H169.182C169.833 165.536 170.334 165.371 170.686 165.04C171.038 164.709 171.214 164.24 171.214 163.632C171.214 163.056 171.027 162.613 170.654 162.304C170.291 161.984 169.769 161.824 169.086 161.824H165.63V160.432H169.182C170.313 160.432 171.198 160.704 171.838 161.248C172.489 161.792 172.814 162.539 172.814 163.488C172.814 164.203 172.638 164.8 172.286 165.28C171.945 165.749 171.438 166.091 170.766 166.304V166.096C171.513 166.277 172.073 166.608 172.446 167.088C172.83 167.557 173.022 168.165 173.022 168.912C173.022 169.552 172.873 170.107 172.574 170.576C172.286 171.035 171.865 171.387 171.31 171.632C170.755 171.877 170.099 172 169.342 172H165.63V170.608H169.31C169.982 170.608 170.499 170.443 170.862 170.112C171.225 169.781 171.406 169.317 171.406 168.72C171.406 168.144 171.219 167.696 170.846 167.376C170.483 167.056 169.971 166.896 169.31 166.896ZM175.196 164.176L177.948 171.792L177.02 173.072L173.612 164.176H175.196ZM173.82 175.504V174.272H174.828C175.074 174.272 175.298 174.245 175.5 174.192C175.703 174.149 175.89 174.048 176.06 173.888C176.231 173.739 176.375 173.499 176.492 173.168L179.788 164.176H181.34L177.644 173.76C177.378 174.432 177.042 174.917 176.636 175.216C176.231 175.515 175.73 175.664 175.132 175.664C174.887 175.664 174.658 175.648 174.444 175.616C174.231 175.595 174.023 175.557 173.82 175.504ZM186.148 168.784V168.208H187.668V168.784C187.668 169.349 187.823 169.819 188.132 170.192C188.452 170.555 188.932 170.736 189.572 170.736C190.223 170.736 190.697 170.555 190.996 170.192C191.305 169.819 191.46 169.333 191.46 168.736V160.432H193.028V168.8C193.028 169.493 192.884 170.096 192.596 170.608C192.308 171.109 191.903 171.499 191.38 171.776C190.868 172.053 190.265 172.192 189.572 172.192C188.836 172.192 188.212 172.048 187.7 171.76C187.188 171.472 186.799 171.072 186.532 170.56C186.276 170.037 186.148 169.445 186.148 168.784ZM194.873 168.08C194.873 167.28 195.049 166.571 195.401 165.952C195.753 165.333 196.233 164.848 196.841 164.496C197.46 164.144 198.164 163.968 198.953 163.968C199.742 163.968 200.441 164.144 201.049 164.496C201.657 164.848 202.137 165.333 202.489 165.952C202.841 166.571 203.017 167.28 203.017 168.08C203.017 168.88 202.841 169.589 202.489 170.208C202.137 170.827 201.657 171.312 201.049 171.664C200.441 172.016 199.742 172.192 198.953 172.192C198.164 172.192 197.46 172.016 196.841 171.664C196.233 171.312 195.753 170.827 195.401 170.208C195.049 169.589 194.873 168.88 194.873 168.08ZM196.393 168.08C196.393 168.624 196.5 169.104 196.713 169.52C196.937 169.936 197.241 170.261 197.625 170.496C198.009 170.731 198.452 170.848 198.953 170.848C199.454 170.848 199.897 170.731 200.281 170.496C200.665 170.261 200.964 169.936 201.177 169.52C201.401 169.104 201.513 168.624 201.513 168.08C201.513 167.525 201.401 167.045 201.177 166.64C200.964 166.224 200.665 165.899 200.281 165.664C199.897 165.429 199.454 165.312 198.953 165.312C198.452 165.312 198.009 165.429 197.625 165.664C197.241 165.899 196.937 166.224 196.713 166.64C196.5 167.045 196.393 167.525 196.393 168.08ZM206.042 172H204.682V160.224H206.186V165.52C206.442 165.008 206.82 164.619 207.322 164.352C207.823 164.085 208.394 163.952 209.034 163.952C209.78 163.952 210.42 164.133 210.954 164.496C211.487 164.848 211.898 165.339 212.186 165.968C212.474 166.597 212.618 167.317 212.618 168.128C212.618 168.907 212.468 169.605 212.17 170.224C211.871 170.843 211.444 171.328 210.89 171.68C210.346 172.021 209.695 172.192 208.938 172.192C208.33 172.192 207.775 172.053 207.274 171.776C206.783 171.499 206.41 171.099 206.154 170.576L206.042 172ZM206.202 168.064C206.202 168.608 206.298 169.088 206.49 169.504C206.692 169.92 206.975 170.245 207.338 170.48C207.711 170.715 208.154 170.832 208.666 170.832C209.178 170.832 209.615 170.715 209.978 170.48C210.34 170.245 210.618 169.92 210.81 169.504C211.012 169.088 211.114 168.608 211.114 168.064C211.114 167.531 211.012 167.061 210.81 166.656C210.618 166.24 210.34 165.915 209.978 165.68C209.615 165.435 209.178 165.312 208.666 165.312C208.154 165.312 207.711 165.429 207.338 165.664C206.975 165.899 206.692 166.224 206.49 166.64C206.298 167.045 206.202 167.52 206.202 168.064ZM222.843 161.152V172H221.275V161.152H222.843ZM217.787 161.872V160.432H226.315V161.872H217.787ZM227.635 172V164.176H229.139V172H227.635ZM228.371 162.32C228.104 162.32 227.87 162.224 227.667 162.032C227.475 161.829 227.379 161.595 227.379 161.328C227.379 161.051 227.475 160.816 227.667 160.624C227.87 160.432 228.104 160.336 228.371 160.336C228.648 160.336 228.883 160.432 229.075 160.624C229.267 160.816 229.363 161.051 229.363 161.328C229.363 161.595 229.267 161.829 229.075 162.032C228.883 162.224 228.648 162.32 228.371 162.32ZM230.49 164.176H235.066V165.44H230.49V164.176ZM233.53 172H232.026V161.728H233.53V172ZM237.952 172H236.448V160.224H237.952V172ZM243.542 172.192C242.785 172.192 242.113 172.021 241.526 171.68C240.939 171.328 240.481 170.848 240.15 170.24C239.819 169.621 239.654 168.907 239.654 168.096C239.654 167.275 239.814 166.555 240.134 165.936C240.465 165.317 240.913 164.832 241.478 164.48C242.054 164.128 242.721 163.952 243.478 163.952C244.225 163.952 244.87 164.112 245.414 164.432C245.969 164.752 246.395 165.2 246.694 165.776C247.003 166.352 247.158 167.029 247.158 167.808V168.368L240.454 168.384L240.486 167.376H245.654C245.654 166.725 245.457 166.203 245.062 165.808C244.667 165.413 244.139 165.216 243.478 165.216C242.977 165.216 242.545 165.328 242.182 165.552C241.83 165.765 241.558 166.085 241.366 166.512C241.185 166.928 241.094 167.429 241.094 168.016C241.094 168.955 241.307 169.68 241.734 170.192C242.161 170.693 242.774 170.944 243.574 170.944C244.161 170.944 244.641 170.827 245.014 170.592C245.387 170.357 245.638 170.016 245.766 169.568H247.174C246.982 170.4 246.571 171.045 245.942 171.504C245.313 171.963 244.513 172.192 243.542 172.192ZM249.73 171.856L249.858 171.824C249.794 171.888 249.714 171.936 249.618 171.968C249.532 172 249.426 172.016 249.298 172.016C249.042 172.016 248.812 171.931 248.61 171.76C248.418 171.579 248.322 171.339 248.322 171.04C248.322 170.72 248.418 170.459 248.61 170.256C248.812 170.043 249.074 169.936 249.394 169.936C249.735 169.936 250.023 170.064 250.258 170.32C250.492 170.576 250.61 170.928 250.61 171.376C250.61 171.76 250.519 172.112 250.338 172.432C250.167 172.763 249.932 173.029 249.634 173.232C249.335 173.445 248.994 173.579 248.61 173.632V172.96C248.93 172.896 249.196 172.763 249.41 172.56C249.623 172.368 249.73 172.133 249.73 171.856ZM258.975 172H257.407V160.432H261.775C263.012 160.432 263.977 160.741 264.671 161.36C265.375 161.968 265.727 162.816 265.727 163.904C265.727 164.704 265.529 165.381 265.135 165.936C264.751 166.491 264.201 166.885 263.487 167.12L265.839 172H264.095L261.935 167.424H258.975V172ZM258.975 161.84V166.032H261.791C262.516 166.032 263.076 165.845 263.471 165.472C263.876 165.099 264.079 164.581 264.079 163.92C264.079 163.248 263.871 162.736 263.455 162.384C263.049 162.021 262.489 161.84 261.775 161.84H258.975ZM266.545 168.08C266.545 167.28 266.721 166.571 267.073 165.952C267.425 165.333 267.905 164.848 268.513 164.496C269.131 164.144 269.835 163.968 270.625 163.968C271.414 163.968 272.113 164.144 272.721 164.496C273.329 164.848 273.809 165.333 274.161 165.952C274.513 166.571 274.689 167.28 274.689 168.08C274.689 168.88 274.513 169.589 274.161 170.208C273.809 170.827 273.329 171.312 272.721 171.664C272.113 172.016 271.414 172.192 270.625 172.192C269.835 172.192 269.131 172.016 268.513 171.664C267.905 171.312 267.425 170.827 267.073 170.208C266.721 169.589 266.545 168.88 266.545 168.08ZM268.065 168.08C268.065 168.624 268.171 169.104 268.385 169.52C268.609 169.936 268.913 170.261 269.297 170.496C269.681 170.731 270.123 170.848 270.625 170.848C271.126 170.848 271.569 170.731 271.953 170.496C272.337 170.261 272.635 169.936 272.849 169.52C273.073 169.104 273.185 168.624 273.185 168.08C273.185 167.525 273.073 167.045 272.849 166.64C272.635 166.224 272.337 165.899 271.953 165.664C271.569 165.429 271.126 165.312 270.625 165.312C270.123 165.312 269.681 165.429 269.297 165.664C268.913 165.899 268.609 166.224 268.385 166.64C268.171 167.045 268.065 167.525 268.065 168.08ZM277.89 172H276.386V160.224H277.89V172ZM283.48 172.192C282.722 172.192 282.05 172.021 281.464 171.68C280.877 171.328 280.418 170.848 280.088 170.24C279.757 169.621 279.592 168.907 279.592 168.096C279.592 167.275 279.752 166.555 280.072 165.936C280.402 165.317 280.85 164.832 281.416 164.48C281.992 164.128 282.658 163.952 283.416 163.952C284.162 163.952 284.808 164.112 285.352 164.432C285.906 164.752 286.333 165.2 286.632 165.776C286.941 166.352 287.096 167.029 287.096 167.808V168.368L280.392 168.384L280.424 167.376H285.592C285.592 166.725 285.394 166.203 285 165.808C284.605 165.413 284.077 165.216 283.416 165.216C282.914 165.216 282.482 165.328 282.12 165.552C281.768 165.765 281.496 166.085 281.304 166.512C281.122 166.928 281.032 167.429 281.032 168.016C281.032 168.955 281.245 169.68 281.672 170.192C282.098 170.693 282.712 170.944 283.512 170.944C284.098 170.944 284.578 170.827 284.952 170.592C285.325 170.357 285.576 170.016 285.704 169.568H287.112C286.92 170.4 286.509 171.045 285.88 171.504C285.25 171.963 284.45 172.192 283.48 172.192Z" fill="#686868"/>
<path d="M420.781 174.7L420.191 174.238L420.781 174.7ZM415.219 174.7L414.629 175.163L415.219 174.7ZM418 177.005V176.255V177.005ZM425.25 164.609C425.25 165.835 424.61 167.476 423.604 169.256C422.614 171.006 421.334 172.779 420.191 174.238L421.371 175.163C422.537 173.676 423.867 171.837 424.909 169.995C425.935 168.181 426.75 166.249 426.75 164.609H425.25ZM415.809 174.238C414.666 172.779 413.386 171.006 412.396 169.256C411.39 167.476 410.75 165.835 410.75 164.609H409.25C409.25 166.249 410.065 168.181 411.091 169.995C412.133 171.837 413.463 173.676 414.629 175.163L415.809 174.238ZM410.75 164.609C410.75 160.216 414.047 156.75 418 156.75V155.25C413.117 155.25 409.25 159.493 409.25 164.609H410.75ZM418 156.75C421.953 156.75 425.25 160.216 425.25 164.609H426.75C426.75 159.493 422.883 155.25 418 155.25V156.75ZM420.191 174.238C419.572 175.027 419.164 175.543 418.799 175.874C418.466 176.176 418.244 176.255 418 176.255V177.755C418.729 177.755 419.295 177.45 419.808 176.984C420.289 176.548 420.785 175.911 421.371 175.163L420.191 174.238ZM414.629 175.163C415.215 175.911 415.711 176.548 416.192 176.984C416.705 177.45 417.271 177.755 418 177.755V176.255C417.756 176.255 417.534 176.176 417.201 175.874C416.836 175.543 416.428 175.027 415.809 174.238L414.629 175.163ZM414.25 165C414.25 167.071 415.929 168.75 418 168.75V167.25C416.757 167.25 415.75 166.243 415.75 165H414.25ZM418 168.75C420.071 168.75 421.75 167.071 421.75 165H420.25C420.25 166.243 419.243 167.25 418 167.25V168.75ZM421.75 165C421.75 162.929 420.071 161.25 418 161.25V162.75C419.243 162.75 420.25 163.757 420.25 165H421.75ZM418 161.25C415.929 161.25 414.25 162.929 414.25 165H415.75C415.75 163.757 416.757 162.75 418 162.75V161.25Z" fill="#686868"/>
<path d="M763 172C763 169.791 760.314 168 757 168C753.686 168 751 169.791 751 172M764.828 158.172C765.2 158.543 765.494 158.984 765.695 159.47C765.896 159.955 766 160.475 766 161.001C766 161.526 765.896 162.045 765.695 162.53C765.494 163.016 765.2 163.457 764.828 163.828M767 156C767.657 156.657 768.177 157.436 768.533 158.294C768.888 159.152 769.072 160.071 769.072 161C769.072 161.928 768.889 162.848 768.533 163.706C768.178 164.564 767.657 165.344 767 166M757 165C754.791 165 753 163.209 753 161C753 158.791 754.791 157 757 157C759.209 157 761 158.791 761 161C761 163.209 759.209 165 757 165Z" stroke="#686868" stroke-width="1.5" stroke-linecap="round" stroke-linejoin="round"/>
<path d="M455.912 160.432V172H454.344V160.432H455.912ZM458.84 167.872H455.56V166.464H458.504C459.283 166.464 459.88 166.256 460.296 165.84C460.712 165.413 460.92 164.843 460.92 164.128C460.92 163.403 460.712 162.843 460.296 162.448C459.88 162.043 459.304 161.84 458.568 161.84H455.208V160.432H458.84C459.597 160.432 460.253 160.587 460.808 160.896C461.363 161.205 461.795 161.637 462.104 162.192C462.413 162.747 462.568 163.397 462.568 164.144C462.568 164.859 462.413 165.499 462.104 166.064C461.795 166.629 461.363 167.072 460.808 167.392C460.253 167.712 459.597 167.872 458.84 167.872ZM468.568 164.112V165.488H467.896C467.181 165.488 466.616 165.696 466.2 166.112C465.795 166.517 465.592 167.099 465.592 167.856V172H464.088V164.192H465.496L465.624 165.76H465.48C465.587 165.248 465.843 164.832 466.248 164.512C466.653 164.181 467.16 164.016 467.768 164.016C467.907 164.016 468.035 164.027 468.152 164.048C468.28 164.059 468.419 164.08 468.568 164.112ZM473.073 172.192C472.316 172.192 471.644 172.021 471.057 171.68C470.471 171.328 470.012 170.848 469.681 170.24C469.351 169.621 469.185 168.907 469.185 168.096C469.185 167.275 469.345 166.555 469.665 165.936C469.996 165.317 470.444 164.832 471.009 164.48C471.585 164.128 472.252 163.952 473.009 163.952C473.756 163.952 474.401 164.112 474.945 164.432C475.5 164.752 475.927 165.2 476.225 165.776C476.535 166.352 476.689 167.029 476.689 167.808V168.368L469.985 168.384L470.017 167.376H475.185C475.185 166.725 474.988 166.203 474.593 165.808C474.199 165.413 473.671 165.216 473.009 165.216C472.508 165.216 472.076 165.328 471.713 165.552C471.361 165.765 471.089 166.085 470.897 166.512C470.716 166.928 470.625 167.429 470.625 168.016C470.625 168.955 470.839 169.68 471.265 170.192C471.692 170.693 472.305 170.944 473.105 170.944C473.692 170.944 474.172 170.827 474.545 170.592C474.919 170.357 475.169 170.016 475.297 169.568H476.705C476.513 170.4 476.103 171.045 475.473 171.504C474.844 171.963 474.044 172.192 473.073 172.192ZM477.537 164.176H482.049V165.44H477.537V164.176ZM482.097 160.288V161.584C482.001 161.584 481.895 161.584 481.777 161.584C481.671 161.584 481.553 161.584 481.425 161.584C480.935 161.584 480.604 161.701 480.433 161.936C480.273 162.171 480.193 162.501 480.193 162.928V172H478.689V162.928C478.689 162.288 478.796 161.771 479.009 161.376C479.233 160.971 479.527 160.677 479.889 160.496C480.263 160.315 480.689 160.224 481.169 160.224C481.319 160.224 481.473 160.229 481.633 160.24C481.793 160.251 481.948 160.267 482.097 160.288ZM486.589 172.192C485.832 172.192 485.16 172.021 484.573 171.68C483.986 171.328 483.528 170.848 483.197 170.24C482.866 169.621 482.701 168.907 482.701 168.096C482.701 167.275 482.861 166.555 483.181 165.936C483.512 165.317 483.96 164.832 484.525 164.48C485.101 164.128 485.768 163.952 486.525 163.952C487.272 163.952 487.917 164.112 488.461 164.432C489.016 164.752 489.442 165.2 489.741 165.776C490.05 166.352 490.205 167.029 490.205 167.808V168.368L483.501 168.384L483.533 167.376H488.701C488.701 166.725 488.504 166.203 488.109 165.808C487.714 165.413 487.186 165.216 486.525 165.216C486.024 165.216 485.592 165.328 485.229 165.552C484.877 165.765 484.605 166.085 484.413 166.512C484.232 166.928 484.141 167.429 484.141 168.016C484.141 168.955 484.354 169.68 484.781 170.192C485.208 170.693 485.821 170.944 486.621 170.944C487.208 170.944 487.688 170.827 488.061 170.592C488.434 170.357 488.685 170.016 488.813 169.568H490.221C490.029 170.4 489.618 171.045 488.989 171.504C488.36 171.963 487.56 172.192 486.589 172.192ZM496.365 164.112V165.488H495.693C494.978 165.488 494.413 165.696 493.997 166.112C493.592 166.517 493.389 167.099 493.389 167.856V172H491.885V164.192H493.293L493.421 165.76H493.277C493.384 165.248 493.64 164.832 494.045 164.512C494.45 164.181 494.957 164.016 495.565 164.016C495.704 164.016 495.832 164.027 495.949 164.048C496.077 164.059 496.216 164.08 496.365 164.112ZM502.256 164.112V165.488H501.584C500.869 165.488 500.304 165.696 499.888 166.112C499.482 166.517 499.28 167.099 499.28 167.856V172H497.776V164.192H499.184L499.312 165.76H499.168C499.274 165.248 499.53 164.832 499.936 164.512C500.341 164.181 500.848 164.016 501.456 164.016C501.594 164.016 501.722 164.027 501.84 164.048C501.968 164.059 502.106 164.08 502.256 164.112ZM506.761 172.192C506.004 172.192 505.332 172.021 504.745 171.68C504.158 171.328 503.7 170.848 503.369 170.24C503.038 169.621 502.873 168.907 502.873 168.096C502.873 167.275 503.033 166.555 503.353 165.936C503.684 165.317 504.132 164.832 504.697 164.48C505.273 164.128 505.94 163.952 506.697 163.952C507.444 163.952 508.089 164.112 508.633 164.432C509.188 164.752 509.614 165.2 509.913 165.776C510.222 166.352 510.377 167.029 510.377 167.808V168.368L503.673 168.384L503.705 167.376H508.873C508.873 166.725 508.676 166.203 508.281 165.808C507.886 165.413 507.358 165.216 506.697 165.216C506.196 165.216 505.764 165.328 505.401 165.552C505.049 165.765 504.777 166.085 504.585 166.512C504.404 166.928 504.313 167.429 504.313 168.016C504.313 168.955 504.526 169.68 504.953 170.192C505.38 170.693 505.993 170.944 506.793 170.944C507.38 170.944 507.86 170.827 508.233 170.592C508.606 170.357 508.857 170.016 508.985 169.568H510.393C510.201 170.4 509.79 171.045 509.161 171.504C508.532 171.963 507.732 172.192 506.761 172.192ZM515.193 172.192C514.435 172.192 513.785 172.021 513.241 171.68C512.697 171.328 512.275 170.843 511.977 170.224C511.689 169.605 511.545 168.901 511.545 168.112C511.545 167.312 511.694 166.603 511.993 165.984C512.291 165.355 512.718 164.859 513.273 164.496C513.827 164.133 514.489 163.952 515.257 163.952C515.865 163.952 516.403 164.08 516.873 164.336C517.353 164.581 517.726 164.949 517.993 165.44V160.224H519.481V172H518.137L518.009 170.576C517.753 171.099 517.374 171.499 516.873 171.776C516.382 172.053 515.822 172.192 515.193 172.192ZM515.497 170.832C516.009 170.832 516.446 170.715 516.809 170.48C517.182 170.245 517.47 169.92 517.673 169.504C517.875 169.088 517.977 168.608 517.977 168.064C517.977 167.52 517.875 167.045 517.673 166.64C517.47 166.224 517.182 165.899 516.809 165.664C516.446 165.429 516.009 165.312 515.497 165.312C514.985 165.312 514.547 165.435 514.185 165.68C513.822 165.915 513.545 166.24 513.353 166.656C513.161 167.061 513.065 167.531 513.065 168.064C513.065 168.608 513.161 169.088 513.353 169.504C513.545 169.92 513.822 170.245 514.185 170.48C514.547 170.715 514.985 170.832 515.497 170.832ZM527.85 160.432V172H526.282V160.432H527.85ZM526.554 172V170.544H532.938V172H526.554ZM533.717 168.08C533.717 167.28 533.893 166.571 534.245 165.952C534.597 165.333 535.077 164.848 535.685 164.496C536.303 164.144 537.007 163.968 537.797 163.968C538.586 163.968 539.285 164.144 539.893 164.496C540.501 164.848 540.981 165.333 541.333 165.952C541.685 166.571 541.861 167.28 541.861 168.08C541.861 168.88 541.685 169.589 541.333 170.208C540.981 170.827 540.501 171.312 539.893 171.664C539.285 172.016 538.586 172.192 537.797 172.192C537.007 172.192 536.303 172.016 535.685 171.664C535.077 171.312 534.597 170.827 534.245 170.208C533.893 169.589 533.717 168.88 533.717 168.08ZM535.237 168.08C535.237 168.624 535.343 169.104 535.557 169.52C535.781 169.936 536.085 170.261 536.469 170.496C536.853 170.731 537.295 170.848 537.797 170.848C538.298 170.848 538.741 170.731 539.125 170.496C539.509 170.261 539.807 169.936 540.021 169.52C540.245 169.104 540.357 168.624 540.357 168.08C540.357 167.525 540.245 167.045 540.021 166.64C539.807 166.224 539.509 165.899 539.125 165.664C538.741 165.429 538.298 165.312 537.797 165.312C537.295 165.312 536.853 165.429 536.469 165.664C536.085 165.899 535.781 166.224 535.557 166.64C535.343 167.045 535.237 167.525 535.237 168.08ZM543.014 168.096C543.014 167.275 543.174 166.555 543.493 165.936C543.824 165.317 544.278 164.832 544.854 164.48C545.43 164.128 546.096 163.952 546.854 163.952C547.835 163.952 548.651 164.213 549.302 164.736C549.952 165.259 550.342 165.952 550.47 166.816H548.966C548.838 166.315 548.587 165.936 548.214 165.68C547.84 165.424 547.403 165.296 546.902 165.296C546.432 165.296 546.016 165.413 545.654 165.648C545.291 165.872 545.008 166.192 544.806 166.608C544.603 167.024 544.502 167.515 544.502 168.08C544.502 168.645 544.598 169.136 544.789 169.552C544.982 169.957 545.254 170.277 545.606 170.512C545.958 170.736 546.368 170.848 546.838 170.848C547.371 170.848 547.83 170.715 548.214 170.448C548.598 170.181 548.854 169.819 548.982 169.36H550.486C550.39 169.925 550.171 170.421 549.83 170.848C549.499 171.264 549.072 171.595 548.55 171.84C548.038 172.075 547.467 172.192 546.838 172.192C546.07 172.192 545.398 172.021 544.822 171.68C544.256 171.339 543.814 170.864 543.493 170.256C543.174 169.637 543.014 168.917 543.014 168.096ZM554.36 172.192C553.528 172.192 552.872 171.973 552.392 171.536C551.923 171.099 551.688 170.528 551.688 169.824C551.688 169.109 551.944 168.539 552.456 168.112C552.968 167.675 553.683 167.419 554.6 167.344L557.064 167.152V166.928C557.064 166.491 556.984 166.144 556.824 165.888C556.664 165.621 556.446 165.435 556.168 165.328C555.891 165.211 555.576 165.152 555.224 165.152C554.595 165.152 554.104 165.285 553.752 165.552C553.411 165.808 553.24 166.176 553.24 166.656H551.928C551.928 166.112 552.067 165.637 552.344 165.232C552.622 164.827 553.011 164.512 553.512 164.288C554.024 164.064 554.616 163.952 555.288 163.952C555.939 163.952 556.504 164.069 556.984 164.304C557.475 164.528 557.854 164.875 558.12 165.344C558.398 165.803 558.536 166.384 558.536 167.088V172H557.256L557.096 170.736C556.894 171.184 556.542 171.541 556.04 171.808C555.55 172.064 554.99 172.192 554.36 172.192ZM554.792 171.024C555.507 171.024 556.067 170.811 556.472 170.384C556.878 169.947 557.08 169.36 557.08 168.624V168.208L555.08 168.368C554.419 168.432 553.939 168.587 553.64 168.832C553.352 169.077 553.208 169.392 553.208 169.776C553.208 170.192 553.347 170.507 553.624 170.72C553.912 170.923 554.302 171.024 554.792 171.024ZM559.662 164.176H564.238V165.44H559.662V164.176ZM562.702 172H561.198V161.728H562.702V172ZM565.588 172V164.176H567.092V172H565.588ZM566.324 162.32C566.057 162.32 565.823 162.224 565.62 162.032C565.428 161.829 565.332 161.595 565.332 161.328C565.332 161.051 565.428 160.816 565.62 160.624C565.823 160.432 566.057 160.336 566.324 160.336C566.601 160.336 566.836 160.432 567.028 160.624C567.22 160.816 567.316 161.051 567.316 161.328C567.316 161.595 567.22 161.829 567.028 162.032C566.836 162.224 566.601 162.32 566.324 162.32ZM568.764 168.08C568.764 167.28 568.94 166.571 569.292 165.952C569.644 165.333 570.124 164.848 570.732 164.496C571.35 164.144 572.054 163.968 572.844 163.968C573.633 163.968 574.332 164.144 574.94 164.496C575.548 164.848 576.028 165.333 576.38 165.952C576.732 166.571 576.908 167.28 576.908 168.08C576.908 168.88 576.732 169.589 576.38 170.208C576.028 170.827 575.548 171.312 574.94 171.664C574.332 172.016 573.633 172.192 572.844 172.192C572.054 172.192 571.35 172.016 570.732 171.664C570.124 171.312 569.644 170.827 569.292 170.208C568.94 169.589 568.764 168.88 568.764 168.08ZM570.284 168.08C570.284 168.624 570.39 169.104 570.604 169.52C570.828 169.936 571.132 170.261 571.516 170.496C571.9 170.731 572.342 170.848 572.844 170.848C573.345 170.848 573.788 170.731 574.172 170.496C574.556 170.261 574.854 169.936 575.068 169.52C575.292 169.104 575.404 168.624 575.404 168.08C575.404 167.525 575.292 167.045 575.068 166.64C574.854 166.224 574.556 165.899 574.172 165.664C573.788 165.429 573.345 165.312 572.844 165.312C572.342 165.312 571.9 165.429 571.516 165.664C571.132 165.899 570.828 166.224 570.604 166.64C570.39 167.045 570.284 167.525 570.284 168.08ZM580.076 172H578.572V164.176H579.932L580.092 165.376C580.338 164.928 580.69 164.581 581.148 164.336C581.618 164.08 582.13 163.952 582.684 163.952C583.708 163.952 584.466 164.245 584.956 164.832C585.447 165.419 585.692 166.213 585.692 167.216V172H584.188V167.552C584.188 166.763 584.018 166.197 583.676 165.856C583.335 165.504 582.876 165.328 582.3 165.328C581.596 165.328 581.047 165.557 580.652 166.016C580.268 166.475 580.076 167.088 580.076 167.856V172Z" fill="#686868"/>
<path d="M794.32 168.784V168.208H795.84V168.784C795.84 169.349 795.995 169.819 796.304 170.192C796.624 170.555 797.104 170.736 797.744 170.736C798.395 170.736 798.869 170.555 799.168 170.192C799.477 169.819 799.632 169.333 799.632 168.736V160.432H801.2V168.8C801.2 169.493 801.056 170.096 800.768 170.608C800.48 171.109 800.075 171.499 799.552 171.776C799.04 172.053 798.437 172.192 797.744 172.192C797.008 172.192 796.384 172.048 795.872 171.76C795.36 171.472 794.971 171.072 794.704 170.56C794.448 170.037 794.32 169.445 794.32 168.784ZM803.045 168.08C803.045 167.28 803.221 166.571 803.573 165.952C803.925 165.333 804.405 164.848 805.013 164.496C805.631 164.144 806.335 163.968 807.125 163.968C807.914 163.968 808.613 164.144 809.221 164.496C809.829 164.848 810.309 165.333 810.661 165.952C811.013 166.571 811.189 167.28 811.189 168.08C811.189 168.88 811.013 169.589 810.661 170.208C810.309 170.827 809.829 171.312 809.221 171.664C808.613 172.016 807.914 172.192 807.125 172.192C806.335 172.192 805.631 172.016 805.013 171.664C804.405 171.312 803.925 170.827 803.573 170.208C803.221 169.589 803.045 168.88 803.045 168.08ZM804.565 168.08C804.565 168.624 804.671 169.104 804.885 169.52C805.109 169.936 805.413 170.261 805.797 170.496C806.181 170.731 806.623 170.848 807.125 170.848C807.626 170.848 808.069 170.731 808.453 170.496C808.837 170.261 809.135 169.936 809.349 169.52C809.573 169.104 809.685 168.624 809.685 168.08C809.685 167.525 809.573 167.045 809.349 166.64C809.135 166.224 808.837 165.899 808.453 165.664C808.069 165.429 807.626 165.312 807.125 165.312C806.623 165.312 806.181 165.429 805.797 165.664C805.413 165.899 805.109 166.224 804.885 166.64C804.671 167.045 804.565 167.525 804.565 168.08ZM814.214 172H812.854V160.224H814.358V165.52C814.614 165.008 814.992 164.619 815.494 164.352C815.995 164.085 816.566 163.952 817.206 163.952C817.952 163.952 818.592 164.133 819.126 164.496C819.659 164.848 820.07 165.339 820.358 165.968C820.646 166.597 820.79 167.317 820.79 168.128C820.79 168.907 820.64 169.605 820.342 170.224C820.043 170.843 819.616 171.328 819.062 171.68C818.518 172.021 817.867 172.192 817.11 172.192C816.502 172.192 815.947 172.053 815.446 171.776C814.955 171.499 814.582 171.099 814.326 170.576L814.214 172ZM814.374 168.064C814.374 168.608 814.47 169.088 814.662 169.504C814.864 169.92 815.147 170.245 815.51 170.48C815.883 170.715 816.326 170.832 816.838 170.832C817.35 170.832 817.787 170.715 818.15 170.48C818.512 170.245 818.79 169.92 818.982 169.504C819.184 169.088 819.286 168.608 819.286 168.064C819.286 167.531 819.184 167.061 818.982 166.656C818.79 166.24 818.512 165.915 818.15 165.68C817.787 165.435 817.35 165.312 816.838 165.312C816.326 165.312 815.883 165.429 815.51 165.664C815.147 165.899 814.864 166.224 814.662 166.64C814.47 167.045 814.374 167.52 814.374 168.064ZM825.99 164.176H830.566V165.44H825.99V164.176ZM829.03 172H827.526V161.728H829.03V172ZM832.54 164.176L835.292 171.792L834.364 173.072L830.956 164.176H832.54ZM831.164 175.504V174.272H832.172C832.417 174.272 832.641 174.245 832.844 174.192C833.047 174.149 833.233 174.048 833.404 173.888C833.575 173.739 833.719 173.499 833.836 173.168L837.132 164.176H838.684L834.988 173.76C834.721 174.432 834.385 174.917 833.98 175.216C833.575 175.515 833.073 175.664 832.476 175.664C832.231 175.664 832.001 175.648 831.788 175.616C831.575 175.595 831.367 175.557 831.164 175.504ZM839.885 175.504V164.176H841.245L841.357 165.584C841.613 165.04 841.992 164.635 842.493 164.368C843.005 164.091 843.57 163.952 844.189 163.952C844.936 163.952 845.581 164.128 846.125 164.48C846.669 164.821 847.085 165.301 847.373 165.92C847.672 166.528 847.821 167.232 847.821 168.032C847.821 168.832 847.677 169.547 847.389 170.176C847.112 170.805 846.701 171.301 846.157 171.664C845.624 172.027 844.968 172.208 844.189 172.208C843.56 172.208 843 172.08 842.509 171.824C842.018 171.568 841.645 171.2 841.389 170.72V175.504H839.885ZM841.405 168.096C841.405 168.619 841.501 169.093 841.693 169.52C841.896 169.936 842.178 170.261 842.541 170.496C842.914 170.731 843.357 170.848 843.869 170.848C844.381 170.848 844.818 170.731 845.181 170.496C845.544 170.251 845.821 169.92 846.013 169.504C846.216 169.088 846.317 168.619 846.317 168.096C846.317 167.552 846.216 167.072 846.013 166.656C845.821 166.24 845.544 165.915 845.181 165.68C844.818 165.445 844.381 165.328 843.869 165.328C843.357 165.328 842.914 165.445 842.541 165.68C842.178 165.915 841.896 166.24 841.693 166.656C841.501 167.072 841.405 167.552 841.405 168.096ZM852.855 172.192C852.097 172.192 851.425 172.021 850.839 171.68C850.252 171.328 849.793 170.848 849.463 170.24C849.132 169.621 848.967 168.907 848.967 168.096C848.967 167.275 849.127 166.555 849.447 165.936C849.777 165.317 850.225 164.832 850.791 164.48C851.367 164.128 852.033 163.952 852.791 163.952C853.537 163.952 854.183 164.112 854.727 164.432C855.281 164.752 855.708 165.2 856.007 165.776C856.316 166.352 856.471 167.029 856.471 167.808V168.368L849.767 168.384L849.799 167.376H854.967C854.967 166.725 854.769 166.203 854.375 165.808C853.98 165.413 853.452 165.216 852.791 165.216C852.289 165.216 851.857 165.328 851.495 165.552C851.143 165.765 850.871 166.085 850.679 166.512C850.497 166.928 850.407 167.429 850.407 168.016C850.407 168.955 850.62 169.68 851.047 170.192C851.473 170.693 852.087 170.944 852.887 170.944C853.473 170.944 853.953 170.827 854.327 170.592C854.7 170.357 854.951 170.016 855.079 169.568H856.487C856.295 170.4 855.884 171.045 855.255 171.504C854.625 171.963 853.825 172.192 852.855 172.192Z" fill="#686868"/>
<path d="M676 166L674.253 167.763C672.859 169.169 672.163 169.872 671.313 169.98C671.105 170.007 670.895 170.007 670.687 169.98C669.837 169.872 669.141 169.169 667.747 167.763L666 166" stroke="#686868" stroke-width="1.5" stroke-linecap="round"/>
<path d="M1017 166L1015.25 167.763C1013.86 169.169 1013.16 169.872 1012.31 169.98C1012.11 170.007 1011.89 170.007 1011.69 169.98C1010.84 169.872 1010.14 169.169 1008.75 167.763L1007 166" stroke="#686868" stroke-width="1.5" stroke-linecap="round"/>
<path d="M1098.64 136.552C1098.64 135.88 1098.81 135.293 1099.15 134.792C1099.5 134.28 1099.98 133.88 1100.59 133.592C1101.21 133.304 1101.92 133.16 1102.72 133.16C1103.49 133.16 1104.15 133.293 1104.72 133.56C1105.29 133.827 1105.73 134.211 1106.05 134.712C1106.37 135.213 1106.54 135.805 1106.58 136.488H1104.75C1104.72 135.944 1104.52 135.523 1104.16 135.224C1103.8 134.925 1103.31 134.776 1102.7 134.776C1102.02 134.776 1101.47 134.931 1101.06 135.24C1100.65 135.549 1100.45 135.971 1100.45 136.504C1100.45 136.941 1100.57 137.293 1100.82 137.56C1101.07 137.827 1101.46 138.019 1101.97 138.136L1103.86 138.568C1104.83 138.781 1105.55 139.149 1106.03 139.672C1106.52 140.184 1106.77 140.861 1106.77 141.704C1106.77 142.408 1106.59 143.027 1106.24 143.56C1105.9 144.083 1105.41 144.488 1104.78 144.776C1104.15 145.064 1103.42 145.208 1102.58 145.208C1101.78 145.208 1101.07 145.075 1100.46 144.808C1099.86 144.531 1099.38 144.141 1099.04 143.64C1098.7 143.139 1098.52 142.552 1098.5 141.88H1100.3C1100.33 142.403 1100.54 142.819 1100.94 143.128C1101.35 143.427 1101.9 143.576 1102.59 143.576C1103.32 143.576 1103.89 143.421 1104.32 143.112C1104.75 142.803 1104.96 142.387 1104.96 141.864C1104.96 141.427 1104.84 141.08 1104.59 140.824C1104.36 140.557 1103.98 140.365 1103.47 140.248L1101.6 139.832C1100.63 139.619 1099.89 139.24 1099.39 138.696C1098.89 138.141 1098.64 137.427 1098.64 136.552ZM1110.7 145.208C1109.87 145.208 1109.22 144.984 1108.74 144.536C1108.27 144.088 1108.03 143.507 1108.03 142.792C1108.03 142.067 1108.28 141.491 1108.78 141.064C1109.3 140.627 1110.02 140.371 1110.94 140.296L1113.36 140.104V139.912C1113.36 139.507 1113.29 139.187 1113.14 138.952C1112.99 138.707 1112.78 138.531 1112.53 138.424C1112.27 138.317 1111.97 138.264 1111.63 138.264C1111.02 138.264 1110.55 138.387 1110.22 138.632C1109.89 138.877 1109.73 139.224 1109.73 139.672H1108.26C1108.26 139.107 1108.39 138.621 1108.67 138.216C1108.96 137.8 1109.37 137.48 1109.89 137.256C1110.41 137.021 1111.02 136.904 1111.71 136.904C1112.39 136.904 1112.98 137.027 1113.47 137.272C1113.97 137.507 1114.36 137.864 1114.62 138.344C1114.9 138.824 1115.04 139.427 1115.04 140.152V145H1113.55L1113.39 143.784C1113.21 144.211 1112.87 144.557 1112.38 144.824C1111.89 145.08 1111.33 145.208 1110.7 145.208ZM1111.25 143.88C1111.9 143.88 1112.42 143.688 1112.8 143.304C1113.18 142.909 1113.38 142.381 1113.38 141.72V141.288L1111.55 141.448C1110.91 141.501 1110.45 141.64 1110.18 141.864C1109.91 142.088 1109.78 142.371 1109.78 142.712C1109.78 143.107 1109.9 143.4 1110.16 143.592C1110.42 143.784 1110.78 143.88 1111.25 143.88ZM1118.8 145H1117.07V133.16H1118.8V145ZM1123.24 145.208C1122.4 145.208 1121.75 144.984 1121.27 144.536C1120.8 144.088 1120.56 143.507 1120.56 142.792C1120.56 142.067 1120.81 141.491 1121.32 141.064C1121.83 140.627 1122.55 140.371 1123.48 140.296L1125.89 140.104V139.912C1125.89 139.507 1125.82 139.187 1125.67 138.952C1125.52 138.707 1125.32 138.531 1125.06 138.424C1124.8 138.317 1124.5 138.264 1124.16 138.264C1123.56 138.264 1123.09 138.387 1122.76 138.632C1122.42 138.877 1122.26 139.224 1122.26 139.672H1120.79C1120.79 139.107 1120.93 138.621 1121.2 138.216C1121.49 137.8 1121.9 137.48 1122.42 137.256C1122.94 137.021 1123.55 136.904 1124.24 136.904C1124.93 136.904 1125.51 137.027 1126 137.272C1126.5 137.507 1126.89 137.864 1127.16 138.344C1127.43 138.824 1127.57 139.427 1127.57 140.152V145H1126.08L1125.92 143.784C1125.74 144.211 1125.41 144.557 1124.92 144.824C1124.42 145.08 1123.86 145.208 1123.24 145.208ZM1123.78 143.88C1124.43 143.88 1124.95 143.688 1125.33 143.304C1125.72 142.909 1125.91 142.381 1125.91 141.72V141.288L1124.08 141.448C1123.44 141.501 1122.98 141.64 1122.71 141.864C1122.44 142.088 1122.31 142.371 1122.31 142.712C1122.31 143.107 1122.44 143.4 1122.69 143.592C1122.95 143.784 1123.31 143.88 1123.78 143.88ZM1134.29 137.096V138.68H1133.6C1132.89 138.68 1132.32 138.877 1131.91 139.272C1131.5 139.667 1131.3 140.248 1131.3 141.016V145H1129.59V137.144H1131.2L1131.35 138.76H1131.19C1131.29 138.237 1131.54 137.811 1131.94 137.48C1132.33 137.149 1132.85 136.984 1133.48 136.984C1133.6 136.984 1133.73 136.995 1133.86 137.016C1134 137.027 1134.14 137.053 1134.29 137.096ZM1136.8 137.144L1139.45 144.6L1138.46 146.232L1134.96 137.144H1136.8ZM1135.18 148.584V147.16H1136.25C1136.51 147.16 1136.73 147.133 1136.92 147.08C1137.13 147.027 1137.31 146.92 1137.47 146.76C1137.63 146.611 1137.77 146.376 1137.88 146.056L1141.16 137.144H1142.96L1139.16 146.76C1138.89 147.464 1138.53 147.971 1138.11 148.28C1137.69 148.6 1137.17 148.76 1136.56 148.76C1136.3 148.76 1136.05 148.744 1135.82 148.712C1135.6 148.68 1135.38 148.637 1135.18 148.584ZM1150.54 133.368V145H1148.73V133.368H1150.54ZM1153.29 140.92H1150.11V139.304H1152.91C1153.65 139.304 1154.21 139.112 1154.59 138.728C1154.98 138.333 1155.18 137.795 1155.18 137.112C1155.18 136.429 1154.98 135.907 1154.59 135.544C1154.21 135.171 1153.66 134.984 1152.94 134.984H1149.84V133.368H1153.29C1154.06 133.368 1154.73 133.528 1155.29 133.848C1155.86 134.157 1156.3 134.595 1156.61 135.16C1156.93 135.725 1157.09 136.381 1157.09 137.128C1157.09 137.864 1156.93 138.52 1156.61 139.096C1156.3 139.661 1155.86 140.109 1155.29 140.44C1154.73 140.76 1154.06 140.92 1153.29 140.92ZM1161.65 145.208C1160.87 145.208 1160.19 145.032 1159.59 144.68C1159 144.328 1158.54 143.843 1158.2 143.224C1157.87 142.595 1157.7 141.875 1157.7 141.064C1157.7 140.243 1157.86 139.523 1158.18 138.904C1158.51 138.285 1158.97 137.8 1159.56 137.448C1160.14 137.085 1160.82 136.904 1161.59 136.904C1162.36 136.904 1163.02 137.069 1163.57 137.4C1164.14 137.72 1164.58 138.179 1164.88 138.776C1165.2 139.363 1165.36 140.056 1165.36 140.856V141.432L1158.61 141.448L1158.64 140.328H1163.64C1163.64 139.72 1163.45 139.24 1163.08 138.888C1162.71 138.525 1162.22 138.344 1161.59 138.344C1161.11 138.344 1160.7 138.445 1160.36 138.648C1160.03 138.851 1159.77 139.155 1159.59 139.56C1159.42 139.955 1159.33 140.44 1159.33 141.016C1159.33 141.912 1159.53 142.595 1159.92 143.064C1160.33 143.533 1160.92 143.768 1161.68 143.768C1162.24 143.768 1162.7 143.661 1163.06 143.448C1163.42 143.235 1163.66 142.92 1163.76 142.504H1165.38C1165.2 143.347 1164.78 144.008 1164.12 144.488C1163.47 144.968 1162.64 145.208 1161.65 145.208ZM1171.7 137.096V138.68H1171.01C1170.29 138.68 1169.73 138.877 1169.31 139.272C1168.91 139.667 1168.71 140.248 1168.71 141.016V145H1166.99V137.144H1168.61L1168.75 138.76H1168.59C1168.7 138.237 1168.95 137.811 1169.35 137.48C1169.74 137.149 1170.25 136.984 1170.88 136.984C1171.01 136.984 1171.14 136.995 1171.27 137.016C1171.4 137.027 1171.55 137.053 1171.7 137.096ZM1179.45 145H1177.69V133.368H1179.45L1183.32 142.888L1187.21 133.368H1188.98V145H1187.22V140.904C1187.22 140.339 1187.22 139.864 1187.22 139.48C1187.23 139.085 1187.24 138.749 1187.24 138.472C1187.25 138.195 1187.26 137.949 1187.27 137.736C1187.29 137.523 1187.31 137.309 1187.34 137.096L1184.17 145H1182.49L1179.32 137.112C1179.37 137.432 1179.4 137.875 1179.42 138.44C1179.44 138.995 1179.45 139.661 1179.45 140.44V145ZM1190.87 141.064C1190.87 140.243 1191.05 139.523 1191.4 138.904C1191.76 138.285 1192.26 137.8 1192.89 137.448C1193.52 137.096 1194.23 136.92 1195.03 136.92C1195.83 136.92 1196.54 137.096 1197.16 137.448C1197.78 137.8 1198.27 138.285 1198.63 138.904C1199 139.523 1199.18 140.243 1199.18 141.064C1199.18 141.875 1199 142.589 1198.63 143.208C1198.27 143.827 1197.78 144.312 1197.16 144.664C1196.54 145.016 1195.83 145.192 1195.03 145.192C1194.23 145.192 1193.52 145.016 1192.89 144.664C1192.26 144.312 1191.76 143.827 1191.4 143.208C1191.05 142.589 1190.87 141.875 1190.87 141.064ZM1192.6 141.048C1192.6 141.56 1192.7 142.013 1192.9 142.408C1193.12 142.792 1193.41 143.096 1193.77 143.32C1194.13 143.533 1194.55 143.64 1195.03 143.64C1195.5 143.64 1195.92 143.533 1196.28 143.32C1196.64 143.096 1196.93 142.792 1197.13 142.408C1197.33 142.013 1197.43 141.56 1197.43 141.048C1197.43 140.536 1197.33 140.088 1197.13 139.704C1196.93 139.32 1196.64 139.021 1196.28 138.808C1195.92 138.584 1195.5 138.472 1195.03 138.472C1194.55 138.472 1194.13 138.584 1193.77 138.808C1193.41 139.021 1193.12 139.32 1192.9 139.704C1192.7 140.088 1192.6 140.536 1192.6 141.048ZM1202.49 145H1200.77V137.144H1202.34L1202.5 138.248C1202.76 137.821 1203.11 137.491 1203.56 137.256C1204.02 137.021 1204.52 136.904 1205.08 136.904C1206.08 136.904 1206.83 137.197 1207.32 137.784C1207.82 138.371 1208.07 139.165 1208.07 140.168V145H1206.36V140.568C1206.36 139.853 1206.19 139.325 1205.86 138.984C1205.54 138.643 1205.11 138.472 1204.57 138.472C1203.92 138.472 1203.4 138.685 1203.03 139.112C1202.67 139.528 1202.49 140.088 1202.49 140.792V145ZM1209.27 137.144H1214.06V138.584H1209.27V137.144ZM1212.52 145H1210.81V134.68H1212.52V145ZM1217.06 145H1215.35V133.16H1217.08V138.248C1217.33 137.843 1217.67 137.517 1218.12 137.272C1218.57 137.027 1219.09 136.904 1219.69 136.904C1220.67 136.904 1221.41 137.197 1221.9 137.784C1222.4 138.371 1222.65 139.165 1222.65 140.168V145H1220.94V140.568C1220.94 140.088 1220.86 139.693 1220.71 139.384C1220.56 139.075 1220.36 138.845 1220.09 138.696C1219.83 138.547 1219.53 138.472 1219.18 138.472C1218.73 138.472 1218.34 138.573 1218.02 138.776C1217.72 138.968 1217.48 139.235 1217.3 139.576C1217.14 139.907 1217.06 140.285 1217.06 140.712V145Z" fill="#222222"/>
<path d="M1278.06 145L1275.12 139.88V138.872H1275.86C1276.3 138.872 1276.69 138.819 1277.02 138.712C1277.35 138.605 1277.62 138.44 1277.82 138.216C1278.04 137.981 1278.18 137.693 1278.24 137.352H1275.12V136.232H1278.22C1278.16 135.901 1278.04 135.624 1277.86 135.4C1277.67 135.176 1277.43 135.005 1277.14 134.888C1276.84 134.76 1276.47 134.696 1276.05 134.696H1275.12V133.576H1282.11V134.696H1279.41C1279.62 134.899 1279.79 135.128 1279.92 135.384C1280.06 135.629 1280.15 135.912 1280.19 136.232H1282.11V137.352H1280.22C1280.13 138.131 1279.82 138.744 1279.31 139.192C1278.81 139.629 1278.15 139.917 1277.34 140.056L1280.45 145H1278.06ZM1287.86 145.192C1287.06 145.192 1286.36 145.032 1285.75 144.712C1285.15 144.392 1284.69 143.944 1284.36 143.368C1284.04 142.781 1283.88 142.099 1283.88 141.32H1285.65C1285.65 142.024 1285.85 142.579 1286.24 142.984C1286.65 143.379 1287.2 143.576 1287.89 143.576C1288.38 143.576 1288.8 143.475 1289.16 143.272C1289.52 143.069 1289.8 142.787 1290 142.424C1290.21 142.051 1290.31 141.613 1290.31 141.112C1290.31 140.632 1290.21 140.211 1290.02 139.848C1289.83 139.485 1289.56 139.203 1289.2 139C1288.85 138.787 1288.42 138.68 1287.91 138.68C1287.45 138.68 1287.02 138.781 1286.61 138.984C1286.21 139.187 1285.89 139.448 1285.65 139.768L1284.08 139.4L1285.51 133.368H1291.44V135.032H1286.28L1286.98 134.392L1285.97 138.408L1285.36 138.6C1285.64 138.131 1286.04 137.773 1286.55 137.528C1287.06 137.272 1287.64 137.144 1288.28 137.144C1289.05 137.144 1289.73 137.309 1290.31 137.64C1290.89 137.971 1291.35 138.429 1291.67 139.016C1291.99 139.603 1292.15 140.275 1292.15 141.032C1292.15 141.853 1291.97 142.579 1291.6 143.208C1291.24 143.827 1290.74 144.312 1290.1 144.664C1289.46 145.016 1288.71 145.192 1287.86 145.192ZM1293.42 139.208C1293.42 137.992 1293.62 136.936 1294.02 136.04C1294.42 135.133 1294.99 134.424 1295.71 133.912C1296.44 133.4 1297.3 133.144 1298.29 133.144C1299.27 133.144 1300.12 133.4 1300.85 133.912C1301.57 134.424 1302.13 135.133 1302.53 136.04C1302.93 136.936 1303.14 137.992 1303.14 139.208C1303.14 140.403 1302.94 141.453 1302.54 142.36C1302.16 143.256 1301.6 143.955 1300.88 144.456C1300.16 144.957 1299.3 145.208 1298.29 145.208C1297.27 145.208 1296.4 144.957 1295.68 144.456C1294.95 143.955 1294.39 143.256 1294 142.36C1293.62 141.453 1293.42 140.403 1293.42 139.208ZM1295.22 139.208C1295.22 140.125 1295.33 140.915 1295.57 141.576C1295.81 142.237 1296.16 142.744 1296.62 143.096C1297.08 143.437 1297.64 143.608 1298.29 143.608C1298.94 143.608 1299.49 143.437 1299.94 143.096C1300.39 142.744 1300.74 142.237 1300.98 141.576C1301.22 140.915 1301.34 140.125 1301.34 139.208C1301.34 138.259 1301.22 137.453 1300.98 136.792C1300.74 136.131 1300.39 135.629 1299.94 135.288C1299.49 134.936 1298.94 134.76 1298.29 134.76C1297.64 134.76 1297.08 134.936 1296.62 135.288C1296.16 135.629 1295.81 136.131 1295.57 136.792C1295.33 137.453 1295.22 138.259 1295.22 139.208ZM1306.68 145H1304.95V133.16H1306.68V140.632L1309.96 137.144H1312.12L1309.12 140.264L1312.07 145H1310.08L1307.92 141.528L1306.68 142.824V145ZM1317.59 141.512V139.976H1322.61V141.512H1317.59ZM1332.02 145L1329.07 139.88V138.872H1329.81C1330.26 138.872 1330.65 138.819 1330.98 138.712C1331.31 138.605 1331.57 138.44 1331.78 138.216C1331.99 137.981 1332.13 137.693 1332.19 137.352H1329.07V136.232H1332.18C1332.11 135.901 1331.99 135.624 1331.81 135.4C1331.63 135.176 1331.39 135.005 1331.09 134.888C1330.79 134.76 1330.43 134.696 1330 134.696H1329.07V133.576H1336.07V134.696H1333.36C1333.57 134.899 1333.75 135.128 1333.87 135.384C1334.01 135.629 1334.1 135.912 1334.15 136.232H1336.07V137.352H1334.18C1334.08 138.131 1333.78 138.744 1333.27 139.192C1332.76 139.629 1332.11 139.917 1331.3 140.056L1334.4 145H1332.02ZM1337.81 141.736C1337.81 140.947 1338.05 140.264 1338.53 139.688C1339.01 139.112 1339.65 138.749 1340.44 138.6L1340.45 138.968C1339.75 138.776 1339.2 138.445 1338.81 137.976C1338.42 137.496 1338.23 136.92 1338.23 136.248C1338.23 135.629 1338.39 135.091 1338.73 134.632C1339.07 134.173 1339.53 133.816 1340.12 133.56C1340.71 133.293 1341.41 133.16 1342.2 133.16C1342.98 133.16 1343.66 133.288 1344.25 133.544C1344.83 133.8 1345.29 134.163 1345.61 134.632C1345.94 135.101 1346.1 135.651 1346.1 136.28C1346.1 136.952 1345.91 137.523 1345.53 137.992C1345.14 138.461 1344.6 138.781 1343.89 138.952L1343.88 138.616C1344.41 138.701 1344.87 138.888 1345.27 139.176C1345.67 139.464 1345.98 139.827 1346.2 140.264C1346.42 140.701 1346.53 141.192 1346.53 141.736C1346.53 142.429 1346.35 143.037 1345.99 143.56C1345.63 144.072 1345.12 144.472 1344.47 144.76C1343.82 145.048 1343.06 145.192 1342.18 145.192C1341.3 145.192 1340.53 145.053 1339.88 144.776C1339.23 144.488 1338.72 144.083 1338.36 143.56C1337.99 143.037 1337.81 142.429 1337.81 141.736ZM1339.59 141.608C1339.59 142.013 1339.7 142.365 1339.91 142.664C1340.12 142.952 1340.42 143.181 1340.81 143.352C1341.2 143.512 1341.66 143.592 1342.18 143.592C1342.7 143.592 1343.16 143.512 1343.54 143.352C1343.93 143.181 1344.22 142.952 1344.44 142.664C1344.65 142.365 1344.76 142.013 1344.76 141.608C1344.76 141.011 1344.52 140.536 1344.05 140.184C1343.58 139.821 1342.95 139.64 1342.17 139.64C1341.38 139.64 1340.75 139.821 1340.28 140.184C1339.82 140.536 1339.59 141.011 1339.59 141.608ZM1339.89 136.392C1339.89 136.915 1340.1 137.336 1340.5 137.656C1340.92 137.965 1341.47 138.12 1342.17 138.12C1342.86 138.12 1343.41 137.965 1343.81 137.656C1344.22 137.347 1344.42 136.931 1344.42 136.408C1344.42 135.885 1344.22 135.475 1343.81 135.176C1343.41 134.867 1342.86 134.712 1342.17 134.712C1341.47 134.712 1340.92 134.867 1340.5 135.176C1340.1 135.475 1339.89 135.88 1339.89 136.392ZM1347.97 139.208C1347.97 137.992 1348.17 136.936 1348.56 136.04C1348.97 135.133 1349.53 134.424 1350.26 133.912C1350.98 133.4 1351.84 133.144 1352.83 133.144C1353.82 133.144 1354.67 133.4 1355.39 133.912C1356.12 134.424 1356.68 135.133 1357.07 136.04C1357.48 136.936 1357.68 137.992 1357.68 139.208C1357.68 140.403 1357.49 141.453 1357.09 142.36C1356.71 143.256 1356.15 143.955 1355.43 144.456C1354.71 144.957 1353.85 145.208 1352.83 145.208C1351.82 145.208 1350.95 144.957 1350.23 144.456C1349.5 143.955 1348.94 143.256 1348.55 142.36C1348.16 141.453 1347.97 140.403 1347.97 139.208ZM1349.76 139.208C1349.76 140.125 1349.88 140.915 1350.11 141.576C1350.36 142.237 1350.71 142.744 1351.17 143.096C1351.63 143.437 1352.18 143.608 1352.83 143.608C1353.49 143.608 1354.03 143.437 1354.48 143.096C1354.94 142.744 1355.29 142.237 1355.52 141.576C1355.77 140.915 1355.89 140.125 1355.89 139.208C1355.89 138.259 1355.77 137.453 1355.52 136.792C1355.29 136.131 1354.94 135.629 1354.48 135.288C1354.03 134.936 1353.49 134.76 1352.83 134.76C1352.18 134.76 1351.63 134.936 1351.17 135.288C1350.71 135.629 1350.36 136.131 1350.11 136.792C1349.88 137.453 1349.76 138.259 1349.76 139.208ZM1361.22 145H1359.49V133.16H1361.22V140.632L1364.5 137.144H1366.66L1363.67 140.264L1366.61 145H1364.63L1362.47 141.528L1361.22 142.824V145Z" fill="#222222"/>
<circle cx="1111.5" cy="173.5" r="5" fill="white" stroke="black" stroke-width="5"/>
<circle cx="1281.5" cy="173.5" r="5" fill="white" stroke="black" stroke-width="5"/>
</g>
<defs>
<filter id="filter0_d_3_60" x="-14" y="-14" width="1468" height="242" filterUnits="userSpaceOnUse" color-interpolation-filters="sRGB">
<feFlood flood-opacity="0" result="BackgroundImageFix"/>
<feColorMatrix in="SourceAlpha" type="matrix" values="0 0 0 0 0 0 0 0 0 0 0 0 0 0 0 0 0 0 127 0" result="hardAlpha"/>
<feOffset/>
<feGaussianBlur stdDeviation="7"/>
<feComposite in2="hardAlpha" operator="out"/>
<feColorMatrix type="matrix" values="0 0 0 0 0.775798 0 0 0 0 0.749028 0 0 0 0 0.749028 0 0 0 0.25 0"/>
<feBlend mode="normal" in2="BackgroundImageFix" result="effect1_dropShadow_3_60"/>
<feBlend mode="normal" in="SourceGraphic" in2="effect1_dropShadow_3_60" result="shape"/>
</filter>
</defs>
</svg>
