<svg width="930" height="120" viewBox="0 0 930 120" fill="none" xmlns="http://www.w3.org/2000/svg">
<g filter="url(#filter0_d_1_67)">
<rect x="20" y="20" width="890" height="80" rx="40" fill="white" shape-rendering="crispEdges"/>
<rect x="20.5" y="20.5" width="889" height="79" rx="39.5" stroke="#FCFCFC" shape-rendering="crispEdges"/>
<g clip-path="url(#clip0_1_67)">
<mask id="mask0_1_67" style="mask-type:luminance" maskUnits="userSpaceOnUse" x="46" y="37" width="44" height="46">
<path d="M90 37.6616H46V82.3385H90V37.6616Z" fill="white"/>
</mask>
<g mask="url(#mask0_1_67)">
<path d="M72.33 42.4197L72.8852 60.3961L87.6353 50.9324L72.33 42.4197Z" fill="#333333"/>
<path d="M87.5308 69.7551V50.8619L66.395 64.4678V82.3387H67.1064" fill="#494949"/>
<path d="M49.1888 69.0419L62.7153 60.3629L63.2245 76.8485L49.1888 69.0419Z" fill="url(#paint0_linear_1_67)"/>
<path d="M49.1888 69.0419L62.7153 60.3629L63.2245 76.8485L49.1888 69.0419Z" fill="url(#paint1_linear_1_67)"/>
<path d="M49.1888 69.0419L62.7153 60.3629L63.2245 76.8485L49.1888 69.0419Z" stroke="url(#paint2_linear_1_67)" stroke-width="0.846154"/>
<path d="M49.1888 69.0419L62.7153 60.3629L63.2245 76.8485L49.1888 69.0419Z" stroke="url(#paint3_linear_1_67)" stroke-width="0.846154"/>
<path d="M48.4691 50.2451V69.1381L69.6051 55.5501V37.6616H68.8936" fill="url(#paint4_linear_1_67)"/>
<path d="M48.4691 50.2451V69.1381L69.6051 55.5501V37.6616H68.8936" fill="url(#paint5_linear_1_67)"/>
</g>
</g>
<rect x="119" y="41" width="92" height="38" rx="10" fill="white"/>
<path d="M146.136 66H144.328V54.368H146.136V59.28H151.576V54.368H153.384V66H151.576V60.944H146.136V66ZM155.279 62.064C155.279 61.2427 155.455 60.5227 155.807 59.904C156.169 59.2853 156.665 58.8 157.295 58.448C157.924 58.096 158.639 57.92 159.439 57.92C160.239 57.92 160.948 58.096 161.567 58.448C162.185 58.8 162.676 59.2853 163.039 59.904C163.401 60.5227 163.583 61.2427 163.583 62.064C163.583 62.8747 163.401 63.5893 163.039 64.208C162.676 64.8267 162.185 65.312 161.567 65.664C160.948 66.016 160.239 66.192 159.439 66.192C158.639 66.192 157.924 66.016 157.295 65.664C156.665 65.312 156.169 64.8267 155.807 64.208C155.455 63.5893 155.279 62.8747 155.279 62.064ZM157.007 62.048C157.007 62.56 157.108 63.0133 157.311 63.408C157.524 63.792 157.812 64.096 158.175 64.32C158.537 64.5333 158.959 64.64 159.439 64.64C159.908 64.64 160.324 64.5333 160.687 64.32C161.049 64.096 161.332 63.792 161.535 63.408C161.737 63.0133 161.839 62.56 161.839 62.048C161.839 61.536 161.737 61.088 161.535 60.704C161.332 60.32 161.049 60.0213 160.687 59.808C160.324 59.584 159.908 59.472 159.439 59.472C158.959 59.472 158.537 59.584 158.175 59.808C157.812 60.0213 157.524 60.32 157.311 60.704C157.108 61.088 157.007 61.536 157.007 62.048ZM166.893 66H165.181V58.144H166.749L166.957 59.568L166.749 59.392C166.909 58.9867 167.202 58.64 167.629 58.352C168.066 58.0533 168.6 57.904 169.229 57.904C169.922 57.904 170.493 58.0907 170.941 58.464C171.389 58.8267 171.693 59.312 171.853 59.92H171.549C171.666 59.312 171.965 58.8267 172.445 58.464C172.936 58.0907 173.528 57.904 174.221 57.904C175.149 57.904 175.869 58.1707 176.381 58.704C176.893 59.2267 177.149 59.9467 177.149 60.864V66H175.437V61.296C175.437 60.7093 175.288 60.2613 174.989 59.952C174.701 59.632 174.306 59.472 173.805 59.472C173.464 59.472 173.16 59.5467 172.893 59.696C172.626 59.8453 172.413 60.0693 172.253 60.368C172.104 60.656 172.029 61.0133 172.029 61.44V66H170.317V61.28C170.317 60.6933 170.168 60.2453 169.869 59.936C169.581 59.6267 169.186 59.472 168.685 59.472C168.344 59.472 168.034 59.552 167.757 59.712C167.49 59.8613 167.277 60.08 167.117 60.368C166.968 60.656 166.893 61.0133 166.893 61.44V66ZM182.621 66.208C181.843 66.208 181.155 66.032 180.557 65.68C179.971 65.328 179.507 64.8427 179.165 64.224C178.835 63.5947 178.669 62.8747 178.669 62.064C178.669 61.2427 178.829 60.5227 179.149 59.904C179.48 59.2853 179.939 58.8 180.525 58.448C181.112 58.0853 181.789 57.904 182.557 57.904C183.325 57.904 183.987 58.0693 184.541 58.4C185.107 58.72 185.544 59.1787 185.853 59.776C186.173 60.3627 186.333 61.056 186.333 61.856V62.432L179.581 62.448L179.613 61.328H184.605C184.605 60.72 184.419 60.24 184.045 59.888C183.683 59.5253 183.187 59.344 182.557 59.344C182.077 59.344 181.667 59.4453 181.325 59.648C180.995 59.8507 180.739 60.1547 180.557 60.56C180.387 60.9547 180.301 61.44 180.301 62.016C180.301 62.912 180.499 63.5947 180.893 64.064C181.299 64.5333 181.885 64.768 182.653 64.768C183.208 64.768 183.667 64.6613 184.029 64.448C184.392 64.2347 184.627 63.92 184.733 63.504H186.349C186.168 64.3467 185.747 65.008 185.085 65.488C184.435 65.968 183.613 66.208 182.621 66.208Z" fill="#303030"/>
<rect x="216" y="41" width="120" height="38" rx="10" fill="white"/>
<path d="M243.136 54.368V66H241.328V54.368H243.136ZM248.432 56.032H241.456V54.368H248.432V56.032ZM247.584 61.152H241.424V59.52H247.584V61.152ZM250.025 66V58.144H251.737V66H250.025ZM250.873 56.416C250.574 56.416 250.318 56.3093 250.105 56.096C249.891 55.8827 249.785 55.6267 249.785 55.328C249.785 55.0293 249.891 54.7733 250.105 54.56C250.318 54.3467 250.574 54.24 250.873 54.24C251.171 54.24 251.427 54.3467 251.641 54.56C251.854 54.7733 251.961 55.0293 251.961 55.328C251.961 55.6267 251.854 55.8827 251.641 56.096C251.427 56.3093 251.171 56.416 250.873 56.416ZM255.565 66H253.853V58.144H255.421L255.581 59.248C255.837 58.8213 256.189 58.4907 256.637 58.256C257.096 58.0213 257.602 57.904 258.157 57.904C259.16 57.904 259.906 58.1973 260.397 58.784C260.898 59.3707 261.149 60.1653 261.149 61.168V66H259.437V61.568C259.437 60.8533 259.272 60.3253 258.941 59.984C258.621 59.6427 258.189 59.472 257.645 59.472C256.994 59.472 256.482 59.6853 256.109 60.112C255.746 60.528 255.565 61.088 255.565 61.792V66ZM266.349 66.208C265.592 66.208 264.936 66.032 264.381 65.68C263.837 65.328 263.416 64.848 263.117 64.24C262.819 63.6213 262.669 62.9067 262.669 62.096C262.669 61.2853 262.819 60.5653 263.117 59.936C263.416 59.3067 263.848 58.8107 264.413 58.448C264.979 58.0853 265.656 57.904 266.445 57.904C267.021 57.904 267.539 58.0213 267.997 58.256C268.467 58.4907 268.829 58.832 269.085 59.28V54.16H270.813V66H269.229L269.117 64.672C268.872 65.1627 268.499 65.5413 267.997 65.808C267.507 66.0747 266.957 66.208 266.349 66.208ZM266.717 64.624C267.208 64.624 267.624 64.5173 267.965 64.304C268.317 64.08 268.589 63.776 268.781 63.392C268.973 62.9973 269.069 62.5493 269.069 62.048C269.069 61.536 268.973 61.088 268.781 60.704C268.589 60.3093 268.317 60.0053 267.965 59.792C267.624 59.568 267.208 59.456 266.717 59.456C266.237 59.456 265.821 59.568 265.469 59.792C265.128 60.016 264.861 60.32 264.669 60.704C264.488 61.088 264.397 61.536 264.397 62.048C264.397 62.5493 264.488 62.9973 264.669 63.392C264.861 63.776 265.128 64.08 265.469 64.304C265.821 64.5173 266.237 64.624 266.717 64.624ZM276.523 62.736V62.112H278.267V62.736C278.267 63.248 278.411 63.6747 278.699 64.016C278.987 64.3467 279.435 64.512 280.043 64.512C280.651 64.512 281.094 64.3467 281.371 64.016C281.659 63.6747 281.803 63.232 281.803 62.688V54.368H283.611V62.768C283.611 63.4507 283.462 64.0533 283.163 64.576C282.875 65.088 282.464 65.488 281.931 65.776C281.398 66.064 280.774 66.208 280.059 66.208C279.291 66.208 278.64 66.0587 278.107 65.76C277.584 65.4613 277.19 65.0507 276.923 64.528C276.656 64.0053 276.523 63.408 276.523 62.736ZM285.404 62.064C285.404 61.2427 285.58 60.5227 285.932 59.904C286.294 59.2853 286.79 58.8 287.42 58.448C288.049 58.096 288.764 57.92 289.564 57.92C290.364 57.92 291.073 58.096 291.692 58.448C292.31 58.8 292.801 59.2853 293.164 59.904C293.526 60.5227 293.708 61.2427 293.708 62.064C293.708 62.8747 293.526 63.5893 293.164 64.208C292.801 64.8267 292.31 65.312 291.692 65.664C291.073 66.016 290.364 66.192 289.564 66.192C288.764 66.192 288.049 66.016 287.42 65.664C286.79 65.312 286.294 64.8267 285.932 64.208C285.58 63.5893 285.404 62.8747 285.404 62.064ZM287.132 62.048C287.132 62.56 287.233 63.0133 287.436 63.408C287.649 63.792 287.937 64.096 288.3 64.32C288.662 64.5333 289.084 64.64 289.564 64.64C290.033 64.64 290.449 64.5333 290.812 64.32C291.174 64.096 291.457 63.792 291.66 63.408C291.862 63.0133 291.964 62.56 291.964 62.048C291.964 61.536 291.862 61.088 291.66 60.704C291.457 60.32 291.174 60.0213 290.812 59.808C290.449 59.584 290.033 59.472 289.564 59.472C289.084 59.472 288.662 59.584 288.3 59.808C287.937 60.0213 287.649 60.32 287.436 60.704C287.233 61.088 287.132 61.536 287.132 62.048ZM296.874 66H295.306V54.16H297.018V59.376C297.285 58.9067 297.663 58.544 298.154 58.288C298.655 58.032 299.215 57.904 299.834 57.904C300.581 57.904 301.221 58.0853 301.754 58.448C302.298 58.8 302.714 59.296 303.002 59.936C303.301 60.5653 303.45 61.2907 303.45 62.112C303.45 62.912 303.295 63.6213 302.986 64.24C302.677 64.848 302.245 65.328 301.69 65.68C301.135 66.032 300.479 66.208 299.722 66.208C299.125 66.208 298.581 66.0747 298.09 65.808C297.61 65.5413 297.247 65.1627 297.002 64.672L296.874 66ZM297.034 62.048C297.034 62.5493 297.13 62.9973 297.322 63.392C297.514 63.776 297.786 64.08 298.138 64.304C298.49 64.5173 298.906 64.624 299.386 64.624C299.877 64.624 300.293 64.5173 300.634 64.304C300.975 64.08 301.237 63.776 301.418 63.392C301.61 62.9973 301.706 62.5493 301.706 62.048C301.706 61.536 301.61 61.088 301.418 60.704C301.237 60.32 300.975 60.016 300.634 59.792C300.293 59.568 299.877 59.456 299.386 59.456C298.906 59.456 298.49 59.568 298.138 59.792C297.786 60.0053 297.514 60.3093 297.322 60.704C297.13 61.088 297.034 61.536 297.034 62.048ZM304.432 63.664H306.064C306.075 64.0373 306.213 64.3307 306.48 64.544C306.747 64.7573 307.115 64.864 307.584 64.864C308.075 64.864 308.453 64.768 308.72 64.576C308.987 64.384 309.12 64.1333 309.12 63.824C309.12 63.5893 309.051 63.3973 308.912 63.248C308.773 63.088 308.512 62.96 308.128 62.864L306.72 62.544C306.027 62.3733 305.504 62.112 305.152 61.76C304.811 61.408 304.64 60.928 304.64 60.32C304.64 59.8187 304.768 59.392 305.024 59.04C305.291 58.6773 305.653 58.4 306.112 58.208C306.571 58.0053 307.093 57.904 307.68 57.904C308.267 57.904 308.779 58.0107 309.216 58.224C309.653 58.4267 309.995 58.7147 310.24 59.088C310.485 59.4613 310.608 59.904 310.608 60.416H308.976C308.965 60.0427 308.843 59.7493 308.608 59.536C308.373 59.3227 308.043 59.216 307.616 59.216C307.2 59.216 306.875 59.312 306.64 59.504C306.405 59.6853 306.288 59.936 306.288 60.256C306.288 60.736 306.645 61.0667 307.36 61.248L308.768 61.568C309.429 61.7173 309.925 61.9627 310.256 62.304C310.587 62.6347 310.752 63.0987 310.752 63.696C310.752 64.1973 310.613 64.64 310.336 65.024C310.069 65.408 309.696 65.7013 309.216 65.904C308.736 66.1067 308.176 66.208 307.536 66.208C306.587 66.208 305.829 65.9733 305.264 65.504C304.709 65.0347 304.432 64.4213 304.432 63.664Z" fill="#303030"/>
<rect x="341" y="41" width="136" height="38" rx="10" fill="white"/>
<path d="M368.136 54.368V66H366.328V54.368H368.136ZM373.432 56.032H366.456V54.368H373.432V56.032ZM372.584 61.152H366.424V59.52H372.584V61.152ZM375.025 66V58.144H376.737V66H375.025ZM375.873 56.416C375.574 56.416 375.318 56.3093 375.105 56.096C374.891 55.8827 374.785 55.6267 374.785 55.328C374.785 55.0293 374.891 54.7733 375.105 54.56C375.318 54.3467 375.574 54.24 375.873 54.24C376.171 54.24 376.427 54.3467 376.641 54.56C376.854 54.7733 376.961 55.0293 376.961 55.328C376.961 55.6267 376.854 55.8827 376.641 56.096C376.427 56.3093 376.171 56.416 375.873 56.416ZM380.565 66H378.853V58.144H380.421L380.581 59.248C380.837 58.8213 381.189 58.4907 381.637 58.256C382.096 58.0213 382.602 57.904 383.157 57.904C384.16 57.904 384.906 58.1973 385.397 58.784C385.898 59.3707 386.149 60.1653 386.149 61.168V66H384.437V61.568C384.437 60.8533 384.272 60.3253 383.941 59.984C383.621 59.6427 383.189 59.472 382.645 59.472C381.994 59.472 381.482 59.6853 381.109 60.112C380.746 60.528 380.565 61.088 380.565 61.792V66ZM391.349 66.208C390.592 66.208 389.936 66.032 389.381 65.68C388.837 65.328 388.416 64.848 388.117 64.24C387.819 63.6213 387.669 62.9067 387.669 62.096C387.669 61.2853 387.819 60.5653 388.117 59.936C388.416 59.3067 388.848 58.8107 389.413 58.448C389.979 58.0853 390.656 57.904 391.445 57.904C392.021 57.904 392.539 58.0213 392.997 58.256C393.467 58.4907 393.829 58.832 394.085 59.28V54.16H395.813V66H394.229L394.117 64.672C393.872 65.1627 393.499 65.5413 392.997 65.808C392.507 66.0747 391.957 66.208 391.349 66.208ZM391.717 64.624C392.208 64.624 392.624 64.5173 392.965 64.304C393.317 64.08 393.589 63.776 393.781 63.392C393.973 62.9973 394.069 62.5493 394.069 62.048C394.069 61.536 393.973 61.088 393.781 60.704C393.589 60.3093 393.317 60.0053 392.965 59.792C392.624 59.568 392.208 59.456 391.717 59.456C391.237 59.456 390.821 59.568 390.469 59.792C390.128 60.016 389.861 60.32 389.669 60.704C389.488 61.088 389.397 61.536 389.397 62.048C389.397 62.5493 389.488 62.9973 389.669 63.392C389.861 63.776 390.128 64.08 390.469 64.304C390.821 64.5173 391.237 64.624 391.717 64.624ZM406.707 55.216V66H404.899V55.216H406.707ZM401.459 56.032V54.368H410.163V56.032H401.459ZM412.485 66.208C411.653 66.208 410.997 65.984 410.517 65.536C410.048 65.088 409.813 64.5067 409.813 63.792C409.813 63.0667 410.064 62.4907 410.565 62.064C411.077 61.6267 411.797 61.3707 412.725 61.296L415.141 61.104V60.912C415.141 60.5067 415.066 60.1867 414.917 59.952C414.768 59.7067 414.565 59.5307 414.309 59.424C414.053 59.3173 413.754 59.264 413.413 59.264C412.805 59.264 412.336 59.3867 412.005 59.632C411.674 59.8773 411.509 60.224 411.509 60.672H410.037C410.037 60.1067 410.176 59.6213 410.453 59.216C410.741 58.8 411.146 58.48 411.669 58.256C412.192 58.0213 412.8 57.904 413.493 57.904C414.176 57.904 414.762 58.0267 415.253 58.272C415.754 58.5067 416.138 58.864 416.405 59.344C416.682 59.824 416.821 60.4267 416.821 61.152V66H415.333L415.173 64.784C414.992 65.2107 414.656 65.5573 414.165 65.824C413.674 66.08 413.114 66.208 412.485 66.208ZM413.029 64.88C413.68 64.88 414.197 64.688 414.581 64.304C414.965 63.9093 415.157 63.3813 415.157 62.72V62.288L413.333 62.448C412.693 62.5013 412.234 62.64 411.957 62.864C411.69 63.088 411.557 63.3707 411.557 63.712C411.557 64.1067 411.685 64.4 411.941 64.592C412.197 64.784 412.56 64.88 413.029 64.88ZM420.581 66H418.853V54.16H420.581V66ZM426.168 66.208C425.39 66.208 424.702 66.032 424.104 65.68C423.518 65.328 423.054 64.8427 422.712 64.224C422.382 63.5947 422.216 62.8747 422.216 62.064C422.216 61.2427 422.376 60.5227 422.696 59.904C423.027 59.2853 423.486 58.8 424.072 58.448C424.659 58.0853 425.336 57.904 426.104 57.904C426.872 57.904 427.534 58.0693 428.088 58.4C428.654 58.72 429.091 59.1787 429.4 59.776C429.72 60.3627 429.88 61.056 429.88 61.856V62.432L423.128 62.448L423.16 61.328H428.152C428.152 60.72 427.966 60.24 427.592 59.888C427.23 59.5253 426.734 59.344 426.104 59.344C425.624 59.344 425.214 59.4453 424.872 59.648C424.542 59.8507 424.286 60.1547 424.104 60.56C423.934 60.9547 423.848 61.44 423.848 62.016C423.848 62.912 424.046 63.5947 424.44 64.064C424.846 64.5333 425.432 64.768 426.2 64.768C426.755 64.768 427.214 64.6613 427.576 64.448C427.939 64.2347 428.174 63.92 428.28 63.504H429.896C429.715 64.3467 429.294 65.008 428.632 65.488C427.982 65.968 427.16 66.208 426.168 66.208ZM433.221 66H431.509V58.144H433.077L433.237 59.248C433.493 58.8213 433.845 58.4907 434.293 58.256C434.752 58.0213 435.258 57.904 435.813 57.904C436.816 57.904 437.562 58.1973 438.053 58.784C438.554 59.3707 438.805 60.1653 438.805 61.168V66H437.093V61.568C437.093 60.8533 436.928 60.3253 436.597 59.984C436.277 59.6427 435.845 59.472 435.301 59.472C434.65 59.472 434.138 59.6853 433.765 60.112C433.402 60.528 433.221 61.088 433.221 61.792V66ZM440.006 58.144H444.79V59.584H440.006V58.144ZM443.254 66H441.542V55.68H443.254V66ZM445.463 63.664H447.095C447.106 64.0373 447.245 64.3307 447.511 64.544C447.778 64.7573 448.146 64.864 448.615 64.864C449.106 64.864 449.485 64.768 449.751 64.576C450.018 64.384 450.151 64.1333 450.151 63.824C450.151 63.5893 450.082 63.3973 449.943 63.248C449.805 63.088 449.543 62.96 449.159 62.864L447.751 62.544C447.058 62.3733 446.535 62.112 446.183 61.76C445.842 61.408 445.671 60.928 445.671 60.32C445.671 59.8187 445.799 59.392 446.055 59.04C446.322 58.6773 446.685 58.4 447.143 58.208C447.602 58.0053 448.125 57.904 448.711 57.904C449.298 57.904 449.81 58.0107 450.247 58.224C450.685 58.4267 451.026 58.7147 451.271 59.088C451.517 59.4613 451.639 59.904 451.639 60.416H450.007C449.997 60.0427 449.874 59.7493 449.639 59.536C449.405 59.3227 449.074 59.216 448.647 59.216C448.231 59.216 447.906 59.312 447.671 59.504C447.437 59.6853 447.319 59.936 447.319 60.256C447.319 60.736 447.677 61.0667 448.391 61.248L449.799 61.568C450.461 61.7173 450.957 61.9627 451.287 62.304C451.618 62.6347 451.783 63.0987 451.783 63.696C451.783 64.1973 451.645 64.64 451.367 65.024C451.101 65.408 450.727 65.7013 450.247 65.904C449.767 66.1067 449.207 66.208 448.567 66.208C447.618 66.208 446.861 65.9733 446.295 65.504C445.741 65.0347 445.463 64.4213 445.463 63.664Z" fill="#303030"/>
<rect x="482" y="41" width="113" height="38" rx="10" fill="white"/>
<path d="M508.064 66H506.192L510.4 54.368H512.336L516.56 66H514.656L513.664 63.216H509.056L508.064 66ZM511.136 57.36L509.584 61.664H513.136L511.584 57.36C511.541 57.2213 511.493 57.0827 511.44 56.944C511.397 56.7947 511.371 56.672 511.36 56.576C511.339 56.672 511.307 56.7947 511.264 56.944C511.232 57.0827 511.189 57.2213 511.136 57.36ZM519.374 66H517.806V54.16H519.518V59.376C519.785 58.9067 520.163 58.544 520.654 58.288C521.155 58.032 521.715 57.904 522.334 57.904C523.081 57.904 523.721 58.0853 524.254 58.448C524.798 58.8 525.214 59.296 525.502 59.936C525.801 60.5653 525.95 61.2907 525.95 62.112C525.95 62.912 525.795 63.6213 525.486 64.24C525.177 64.848 524.745 65.328 524.19 65.68C523.635 66.032 522.979 66.208 522.222 66.208C521.625 66.208 521.081 66.0747 520.59 65.808C520.11 65.5413 519.747 65.1627 519.502 64.672L519.374 66ZM519.534 62.048C519.534 62.5493 519.63 62.9973 519.822 63.392C520.014 63.776 520.286 64.08 520.638 64.304C520.99 64.5173 521.406 64.624 521.886 64.624C522.377 64.624 522.793 64.5173 523.134 64.304C523.475 64.08 523.737 63.776 523.918 63.392C524.11 62.9973 524.206 62.5493 524.206 62.048C524.206 61.536 524.11 61.088 523.918 60.704C523.737 60.32 523.475 60.016 523.134 59.792C522.793 59.568 522.377 59.456 521.886 59.456C521.406 59.456 520.99 59.568 520.638 59.792C520.286 60.0053 520.014 60.3093 519.822 60.704C519.63 61.088 519.534 61.536 519.534 62.048ZM527.06 62.064C527.06 61.2427 527.236 60.5227 527.588 59.904C527.951 59.2853 528.447 58.8 529.076 58.448C529.705 58.096 530.42 57.92 531.22 57.92C532.02 57.92 532.729 58.096 533.348 58.448C533.967 58.8 534.457 59.2853 534.82 59.904C535.183 60.5227 535.364 61.2427 535.364 62.064C535.364 62.8747 535.183 63.5893 534.82 64.208C534.457 64.8267 533.967 65.312 533.348 65.664C532.729 66.016 532.02 66.192 531.22 66.192C530.42 66.192 529.705 66.016 529.076 65.664C528.447 65.312 527.951 64.8267 527.588 64.208C527.236 63.5893 527.06 62.8747 527.06 62.064ZM528.788 62.048C528.788 62.56 528.889 63.0133 529.092 63.408C529.305 63.792 529.593 64.096 529.956 64.32C530.319 64.5333 530.74 64.64 531.22 64.64C531.689 64.64 532.105 64.5333 532.468 64.32C532.831 64.096 533.113 63.792 533.316 63.408C533.519 63.0133 533.62 62.56 533.62 62.048C533.62 61.536 533.519 61.088 533.316 60.704C533.113 60.32 532.831 60.0213 532.468 59.808C532.105 59.584 531.689 59.472 531.22 59.472C530.74 59.472 530.319 59.584 529.956 59.808C529.593 60.0213 529.305 60.32 529.092 60.704C528.889 61.088 528.788 61.536 528.788 62.048ZM542.151 58.144H543.879V66H542.295L542.135 64.88C541.911 65.2747 541.559 65.5947 541.079 65.84C540.609 66.0853 540.097 66.208 539.543 66.208C538.636 66.208 537.932 65.92 537.431 65.344C536.929 64.768 536.679 64 536.679 63.04V58.128H538.407V62.448C538.407 63.2373 538.561 63.8027 538.871 64.144C539.18 64.4853 539.617 64.656 540.183 64.656C540.833 64.656 541.324 64.4587 541.655 64.064C541.985 63.6693 542.151 63.072 542.151 62.272V58.144ZM545.162 58.144H549.946V59.584H545.162V58.144ZM548.41 66H546.698V55.68H548.41V66ZM560.963 58.144H562.691V66H561.107L560.947 64.88C560.723 65.2747 560.371 65.5947 559.891 65.84C559.422 66.0853 558.91 66.208 558.355 66.208C557.449 66.208 556.745 65.92 556.243 65.344C555.742 64.768 555.491 64 555.491 63.04V58.128H557.219V62.448C557.219 63.2373 557.374 63.8027 557.683 64.144C557.993 64.4853 558.43 64.656 558.995 64.656C559.646 64.656 560.137 64.4587 560.467 64.064C560.798 63.6693 560.963 63.072 560.963 62.272V58.144ZM564.01 63.664H565.642C565.653 64.0373 565.791 64.3307 566.058 64.544C566.325 64.7573 566.693 64.864 567.162 64.864C567.653 64.864 568.031 64.768 568.298 64.576C568.565 64.384 568.698 64.1333 568.698 63.824C568.698 63.5893 568.629 63.3973 568.49 63.248C568.351 63.088 568.09 62.96 567.706 62.864L566.298 62.544C565.605 62.3733 565.082 62.112 564.73 61.76C564.389 61.408 564.218 60.928 564.218 60.32C564.218 59.8187 564.346 59.392 564.602 59.04C564.869 58.6773 565.231 58.4 565.69 58.208C566.149 58.0053 566.671 57.904 567.258 57.904C567.845 57.904 568.357 58.0107 568.794 58.224C569.231 58.4267 569.573 58.7147 569.818 59.088C570.063 59.4613 570.186 59.904 570.186 60.416H568.554C568.543 60.0427 568.421 59.7493 568.186 59.536C567.951 59.3227 567.621 59.216 567.194 59.216C566.778 59.216 566.453 59.312 566.218 59.504C565.983 59.6853 565.866 59.936 565.866 60.256C565.866 60.736 566.223 61.0667 566.938 61.248L568.346 61.568C569.007 61.7173 569.503 61.9627 569.834 62.304C570.165 62.6347 570.33 63.0987 570.33 63.696C570.33 64.1973 570.191 64.64 569.914 65.024C569.647 65.408 569.274 65.7013 568.794 65.904C568.314 66.1067 567.754 66.208 567.114 66.208C566.165 66.208 565.407 65.9733 564.842 65.504C564.287 65.0347 564.01 64.4213 564.01 63.664Z" fill="#303030"/>
<rect x="600" y="41" width="138" height="38" rx="10" fill="white"/>
<path d="M629.504 55.216V66H627.696V55.216H629.504ZM624.256 56.032V54.368H632.96V56.032H624.256ZM636.434 66.208C635.655 66.208 634.967 66.032 634.37 65.68C633.783 65.328 633.319 64.8427 632.978 64.224C632.647 63.5947 632.482 62.8747 632.482 62.064C632.482 61.2427 632.642 60.5227 632.962 59.904C633.293 59.2853 633.751 58.8 634.338 58.448C634.925 58.0853 635.602 57.904 636.37 57.904C637.138 57.904 637.799 58.0693 638.354 58.4C638.919 58.72 639.357 59.1787 639.666 59.776C639.986 60.3627 640.146 61.056 640.146 61.856V62.432L633.394 62.448L633.426 61.328H638.418C638.418 60.72 638.231 60.24 637.858 59.888C637.495 59.5253 636.999 59.344 636.37 59.344C635.89 59.344 635.479 59.4453 635.138 59.648C634.807 59.8507 634.551 60.1547 634.37 60.56C634.199 60.9547 634.114 61.44 634.114 62.016C634.114 62.912 634.311 63.5947 634.706 64.064C635.111 64.5333 635.698 64.768 636.466 64.768C637.021 64.768 637.479 64.6613 637.842 64.448C638.205 64.2347 638.439 63.92 638.546 63.504H640.162C639.981 64.3467 639.559 65.008 638.898 65.488C638.247 65.968 637.426 66.208 636.434 66.208ZM641.151 63.664H642.783C642.793 64.0373 642.932 64.3307 643.199 64.544C643.465 64.7573 643.833 64.864 644.303 64.864C644.793 64.864 645.172 64.768 645.439 64.576C645.705 64.384 645.839 64.1333 645.839 63.824C645.839 63.5893 645.769 63.3973 645.631 63.248C645.492 63.088 645.231 62.96 644.847 62.864L643.439 62.544C642.745 62.3733 642.223 62.112 641.871 61.76C641.529 61.408 641.359 60.928 641.359 60.32C641.359 59.8187 641.487 59.392 641.743 59.04C642.009 58.6773 642.372 58.4 642.831 58.208C643.289 58.0053 643.812 57.904 644.399 57.904C644.985 57.904 645.497 58.0107 645.935 58.224C646.372 58.4267 646.713 58.7147 646.959 59.088C647.204 59.4613 647.327 59.904 647.327 60.416H645.695C645.684 60.0427 645.561 59.7493 645.327 59.536C645.092 59.3227 644.761 59.216 644.335 59.216C643.919 59.216 643.593 59.312 643.359 59.504C643.124 59.6853 643.007 59.936 643.007 60.256C643.007 60.736 643.364 61.0667 644.079 61.248L645.487 61.568C646.148 61.7173 646.644 61.9627 646.975 62.304C647.305 62.6347 647.471 63.0987 647.471 63.696C647.471 64.1973 647.332 64.64 647.055 65.024C646.788 65.408 646.415 65.7013 645.935 65.904C645.455 66.1067 644.895 66.208 644.255 66.208C643.305 66.208 642.548 65.9733 641.983 65.504C641.428 65.0347 641.151 64.4213 641.151 63.664ZM648.24 58.144H653.024V59.584H648.24V58.144ZM651.488 66H649.776V55.68H651.488V66ZM654.322 66V58.144H656.034V66H654.322ZM655.17 56.416C654.871 56.416 654.615 56.3093 654.402 56.096C654.188 55.8827 654.082 55.6267 654.082 55.328C654.082 55.0293 654.188 54.7733 654.402 54.56C654.615 54.3467 654.871 54.24 655.17 54.24C655.468 54.24 655.724 54.3467 655.938 54.56C656.151 54.7733 656.258 55.0293 656.258 55.328C656.258 55.6267 656.151 55.8827 655.938 56.096C655.724 56.3093 655.468 56.416 655.17 56.416ZM659.862 66H658.15V58.144H659.718L659.926 59.568L659.718 59.392C659.878 58.9867 660.171 58.64 660.598 58.352C661.035 58.0533 661.568 57.904 662.198 57.904C662.891 57.904 663.462 58.0907 663.91 58.464C664.358 58.8267 664.662 59.312 664.822 59.92H664.518C664.635 59.312 664.934 58.8267 665.414 58.464C665.904 58.0907 666.496 57.904 667.19 57.904C668.118 57.904 668.838 58.1707 669.35 58.704C669.862 59.2267 670.118 59.9467 670.118 60.864V66H668.406V61.296C668.406 60.7093 668.256 60.2613 667.958 59.952C667.67 59.632 667.275 59.472 666.774 59.472C666.432 59.472 666.128 59.5467 665.862 59.696C665.595 59.8453 665.382 60.0693 665.222 60.368C665.072 60.656 664.998 61.0133 664.998 61.44V66H663.286V61.28C663.286 60.6933 663.136 60.2453 662.838 59.936C662.55 59.6267 662.155 59.472 661.654 59.472C661.312 59.472 661.003 59.552 660.726 59.712C660.459 59.8613 660.246 60.08 660.086 60.368C659.936 60.656 659.862 61.0133 659.862 61.44V66ZM671.638 62.064C671.638 61.2427 671.814 60.5227 672.166 59.904C672.529 59.2853 673.025 58.8 673.654 58.448C674.283 58.096 674.998 57.92 675.798 57.92C676.598 57.92 677.307 58.096 677.926 58.448C678.545 58.8 679.035 59.2853 679.398 59.904C679.761 60.5227 679.942 61.2427 679.942 62.064C679.942 62.8747 679.761 63.5893 679.398 64.208C679.035 64.8267 678.545 65.312 677.926 65.664C677.307 66.016 676.598 66.192 675.798 66.192C674.998 66.192 674.283 66.016 673.654 65.664C673.025 65.312 672.529 64.8267 672.166 64.208C671.814 63.5893 671.638 62.8747 671.638 62.064ZM673.366 62.048C673.366 62.56 673.467 63.0133 673.67 63.408C673.883 63.792 674.171 64.096 674.534 64.32C674.897 64.5333 675.318 64.64 675.798 64.64C676.267 64.64 676.683 64.5333 677.046 64.32C677.409 64.096 677.691 63.792 677.894 63.408C678.097 63.0133 678.198 62.56 678.198 62.048C678.198 61.536 678.097 61.088 677.894 60.704C677.691 60.32 677.409 60.0213 677.046 59.808C676.683 59.584 676.267 59.472 675.798 59.472C675.318 59.472 674.897 59.584 674.534 59.808C674.171 60.0213 673.883 60.32 673.67 60.704C673.467 61.088 673.366 61.536 673.366 62.048ZM683.252 66H681.54V58.144H683.108L683.268 59.248C683.524 58.8213 683.876 58.4907 684.324 58.256C684.783 58.0213 685.29 57.904 685.844 57.904C686.847 57.904 687.594 58.1973 688.084 58.784C688.586 59.3707 688.836 60.1653 688.836 61.168V66H687.124V61.568C687.124 60.8533 686.959 60.3253 686.628 59.984C686.308 59.6427 685.876 59.472 685.332 59.472C684.682 59.472 684.17 59.6853 683.796 60.112C683.434 60.528 683.252 61.088 683.252 61.792V66ZM690.853 66V58.144H692.565V66H690.853ZM691.701 56.416C691.402 56.416 691.146 56.3093 690.933 56.096C690.72 55.8827 690.613 55.6267 690.613 55.328C690.613 55.0293 690.72 54.7733 690.933 54.56C691.146 54.3467 691.402 54.24 691.701 54.24C692 54.24 692.256 54.3467 692.469 54.56C692.682 54.7733 692.789 55.0293 692.789 55.328C692.789 55.6267 692.682 55.8827 692.469 56.096C692.256 56.3093 692 56.416 691.701 56.416ZM696.985 66.208C696.153 66.208 695.497 65.984 695.017 65.536C694.548 65.088 694.313 64.5067 694.313 63.792C694.313 63.0667 694.564 62.4907 695.065 62.064C695.577 61.6267 696.297 61.3707 697.225 61.296L699.641 61.104V60.912C699.641 60.5067 699.566 60.1867 699.417 59.952C699.268 59.7067 699.065 59.5307 698.809 59.424C698.553 59.3173 698.254 59.264 697.913 59.264C697.305 59.264 696.836 59.3867 696.505 59.632C696.174 59.8773 696.009 60.224 696.009 60.672H694.537C694.537 60.1067 694.676 59.6213 694.953 59.216C695.241 58.8 695.646 58.48 696.169 58.256C696.692 58.0213 697.3 57.904 697.993 57.904C698.676 57.904 699.262 58.0267 699.753 58.272C700.254 58.5067 700.638 58.864 700.905 59.344C701.182 59.824 701.321 60.4267 701.321 61.152V66H699.833L699.673 64.784C699.492 65.2107 699.156 65.5573 698.665 65.824C698.174 66.08 697.614 66.208 696.985 66.208ZM697.529 64.88C698.18 64.88 698.697 64.688 699.081 64.304C699.465 63.9093 699.657 63.3813 699.657 62.72V62.288L697.833 62.448C697.193 62.5013 696.734 62.64 696.457 62.864C696.19 63.088 696.057 63.3707 696.057 63.712C696.057 64.1067 696.185 64.4 696.441 64.592C696.697 64.784 697.06 64.88 697.529 64.88ZM705.081 66H703.353V54.16H705.081V66ZM706.588 63.664H708.22C708.231 64.0373 708.37 64.3307 708.636 64.544C708.903 64.7573 709.271 64.864 709.74 64.864C710.231 64.864 710.61 64.768 710.876 64.576C711.143 64.384 711.276 64.1333 711.276 63.824C711.276 63.5893 711.207 63.3973 711.068 63.248C710.93 63.088 710.668 62.96 710.284 62.864L708.876 62.544C708.183 62.3733 707.66 62.112 707.308 61.76C706.967 61.408 706.796 60.928 706.796 60.32C706.796 59.8187 706.924 59.392 707.18 59.04C707.447 58.6773 707.81 58.4 708.268 58.208C708.727 58.0053 709.25 57.904 709.836 57.904C710.423 57.904 710.935 58.0107 711.372 58.224C711.81 58.4267 712.151 58.7147 712.396 59.088C712.642 59.4613 712.764 59.904 712.764 60.416H711.132C711.122 60.0427 710.999 59.7493 710.764 59.536C710.53 59.3227 710.199 59.216 709.772 59.216C709.356 59.216 709.031 59.312 708.796 59.504C708.562 59.6853 708.444 59.936 708.444 60.256C708.444 60.736 708.802 61.0667 709.516 61.248L710.924 61.568C711.586 61.7173 712.082 61.9627 712.412 62.304C712.743 62.6347 712.908 63.0987 712.908 63.696C712.908 64.1973 712.77 64.64 712.492 65.024C712.226 65.408 711.852 65.7013 711.372 65.904C710.892 66.1067 710.332 66.208 709.692 66.208C708.743 66.208 707.986 65.9733 707.42 65.504C706.866 65.0347 706.588 64.4213 706.588 63.664Z" fill="#303030"/>
<g clip-path="url(#clip1_1_67)">
<rect x="756" y="41" width="123" height="38" rx="19" fill="url(#paint6_linear_1_67)"/>
<path d="M779.442 66.192C778.322 66.192 777.346 65.9467 776.514 65.456C775.682 64.9547 775.037 64.256 774.578 63.36C774.119 62.4533 773.89 61.3973 773.89 60.192C773.89 58.9867 774.125 57.936 774.594 57.04C775.063 56.1333 775.725 55.4293 776.578 54.928C777.431 54.4267 778.418 54.176 779.538 54.176C780.434 54.176 781.239 54.3413 781.954 54.672C782.679 55.0027 783.277 55.472 783.746 56.08C784.226 56.6773 784.535 57.3867 784.674 58.208H782.738C782.535 57.4827 782.146 56.9227 781.57 56.528C780.994 56.1227 780.295 55.92 779.474 55.92C778.727 55.92 778.077 56.096 777.522 56.448C776.967 56.7893 776.535 57.28 776.226 57.92C775.927 58.56 775.778 59.312 775.778 60.176C775.778 61.04 775.933 61.792 776.242 62.432C776.551 63.072 776.983 63.568 777.538 63.92C778.093 64.272 778.738 64.448 779.474 64.448C780.295 64.448 781.005 64.2453 781.602 63.84C782.199 63.4347 782.599 62.8907 782.802 62.208H784.706C784.546 63.008 784.221 63.7067 783.73 64.304C783.25 64.9013 782.642 65.3653 781.906 65.696C781.17 66.0267 780.349 66.192 779.442 66.192ZM791.026 58.096V59.68H790.338C789.623 59.68 789.058 59.8773 788.642 60.272C788.236 60.6667 788.034 61.248 788.034 62.016V66H786.322V58.144H787.938L788.082 59.76H787.922C788.028 59.2373 788.279 58.8107 788.674 58.48C789.068 58.1493 789.58 57.984 790.21 57.984C790.338 57.984 790.466 57.9947 790.594 58.016C790.732 58.0267 790.876 58.0533 791.026 58.096ZM795.59 66.208C794.811 66.208 794.123 66.032 793.526 65.68C792.939 65.328 792.475 64.8427 792.134 64.224C791.803 63.5947 791.638 62.8747 791.638 62.064C791.638 61.2427 791.798 60.5227 792.118 59.904C792.449 59.2853 792.907 58.8 793.494 58.448C794.081 58.0853 794.758 57.904 795.526 57.904C796.294 57.904 796.955 58.0693 797.51 58.4C798.075 58.72 798.513 59.1787 798.822 59.776C799.142 60.3627 799.302 61.056 799.302 61.856V62.432L792.55 62.448L792.582 61.328H797.574C797.574 60.72 797.387 60.24 797.014 59.888C796.651 59.5253 796.155 59.344 795.526 59.344C795.046 59.344 794.635 59.4453 794.294 59.648C793.963 59.8507 793.707 60.1547 793.526 60.56C793.355 60.9547 793.27 61.44 793.27 62.016C793.27 62.912 793.467 63.5947 793.862 64.064C794.267 64.5333 794.854 64.768 795.622 64.768C796.177 64.768 796.635 64.6613 796.998 64.448C797.361 64.2347 797.595 63.92 797.702 63.504H799.318C799.137 64.3467 798.715 65.008 798.054 65.488C797.403 65.968 796.582 66.208 795.59 66.208ZM803.157 66.208C802.325 66.208 801.669 65.984 801.189 65.536C800.72 65.088 800.485 64.5067 800.485 63.792C800.485 63.0667 800.736 62.4907 801.237 62.064C801.749 61.6267 802.469 61.3707 803.397 61.296L805.813 61.104V60.912C805.813 60.5067 805.738 60.1867 805.589 59.952C805.44 59.7067 805.237 59.5307 804.981 59.424C804.725 59.3173 804.426 59.264 804.085 59.264C803.477 59.264 803.008 59.3867 802.677 59.632C802.346 59.8773 802.181 60.224 802.181 60.672H800.709C800.709 60.1067 800.848 59.6213 801.125 59.216C801.413 58.8 801.818 58.48 802.341 58.256C802.864 58.0213 803.472 57.904 804.165 57.904C804.848 57.904 805.434 58.0267 805.925 58.272C806.426 58.5067 806.81 58.864 807.077 59.344C807.354 59.824 807.493 60.4267 807.493 61.152V66H806.005L805.845 64.784C805.664 65.2107 805.328 65.5573 804.837 65.824C804.346 66.08 803.786 66.208 803.157 66.208ZM803.701 64.88C804.352 64.88 804.869 64.688 805.253 64.304C805.637 63.9093 805.829 63.3813 805.829 62.72V62.288L804.005 62.448C803.365 62.5013 802.906 62.64 802.629 62.864C802.362 63.088 802.229 63.3707 802.229 63.712C802.229 64.1067 802.357 64.4 802.613 64.592C802.869 64.784 803.232 64.88 803.701 64.88ZM808.584 58.144H813.368V59.584H808.584V58.144ZM811.832 66H810.12V55.68H811.832V66ZM818.043 66.208C817.265 66.208 816.577 66.032 815.979 65.68C815.393 65.328 814.929 64.8427 814.587 64.224C814.257 63.5947 814.091 62.8747 814.091 62.064C814.091 61.2427 814.251 60.5227 814.571 59.904C814.902 59.2853 815.361 58.8 815.947 58.448C816.534 58.0853 817.211 57.904 817.979 57.904C818.747 57.904 819.409 58.0693 819.963 58.4C820.529 58.72 820.966 59.1787 821.275 59.776C821.595 60.3627 821.755 61.056 821.755 61.856V62.432L815.003 62.448L815.035 61.328H820.027C820.027 60.72 819.841 60.24 819.467 59.888C819.105 59.5253 818.609 59.344 817.979 59.344C817.499 59.344 817.089 59.4453 816.747 59.648C816.417 59.8507 816.161 60.1547 815.979 60.56C815.809 60.9547 815.723 61.44 815.723 62.016C815.723 62.912 815.921 63.5947 816.315 64.064C816.721 64.5333 817.307 64.768 818.075 64.768C818.63 64.768 819.089 64.6613 819.451 64.448C819.814 64.2347 820.049 63.92 820.155 63.504H821.771C821.59 64.3467 821.169 65.008 820.507 65.488C819.857 65.968 819.035 66.208 818.043 66.208ZM826.992 62.736V62.112H828.736V62.736C828.736 63.248 828.88 63.6747 829.168 64.016C829.456 64.3467 829.904 64.512 830.512 64.512C831.12 64.512 831.563 64.3467 831.84 64.016C832.128 63.6747 832.272 63.232 832.272 62.688V54.368H834.08V62.768C834.08 63.4507 833.931 64.0533 833.632 64.576C833.344 65.088 832.933 65.488 832.4 65.776C831.867 66.064 831.243 66.208 830.528 66.208C829.76 66.208 829.109 66.0587 828.576 65.76C828.053 65.4613 827.659 65.0507 827.392 64.528C827.125 64.0053 826.992 63.408 826.992 62.736ZM835.873 62.064C835.873 61.2427 836.049 60.5227 836.401 59.904C836.763 59.2853 837.259 58.8 837.889 58.448C838.518 58.096 839.233 57.92 840.033 57.92C840.833 57.92 841.542 58.096 842.161 58.448C842.779 58.8 843.27 59.2853 843.633 59.904C843.995 60.5227 844.177 61.2427 844.177 62.064C844.177 62.8747 843.995 63.5893 843.633 64.208C843.27 64.8267 842.779 65.312 842.161 65.664C841.542 66.016 840.833 66.192 840.033 66.192C839.233 66.192 838.518 66.016 837.889 65.664C837.259 65.312 836.763 64.8267 836.401 64.208C836.049 63.5893 835.873 62.8747 835.873 62.064ZM837.601 62.048C837.601 62.56 837.702 63.0133 837.905 63.408C838.118 63.792 838.406 64.096 838.769 64.32C839.131 64.5333 839.553 64.64 840.033 64.64C840.502 64.64 840.918 64.5333 841.281 64.32C841.643 64.096 841.926 63.792 842.129 63.408C842.331 63.0133 842.433 62.56 842.433 62.048C842.433 61.536 842.331 61.088 842.129 60.704C841.926 60.32 841.643 60.0213 841.281 59.808C840.918 59.584 840.502 59.472 840.033 59.472C839.553 59.472 839.131 59.584 838.769 59.808C838.406 60.0213 838.118 60.32 837.905 60.704C837.702 61.088 837.601 61.536 837.601 62.048ZM847.343 66H845.775V54.16H847.487V59.376C847.753 58.9067 848.132 58.544 848.623 58.288C849.124 58.032 849.684 57.904 850.303 57.904C851.049 57.904 851.689 58.0853 852.223 58.448C852.767 58.8 853.183 59.296 853.471 59.936C853.769 60.5653 853.919 61.2907 853.919 62.112C853.919 62.912 853.764 63.6213 853.455 64.24C853.145 64.848 852.713 65.328 852.159 65.68C851.604 66.032 850.948 66.208 850.191 66.208C849.593 66.208 849.049 66.0747 848.559 65.808C848.079 65.5413 847.716 65.1627 847.471 64.672L847.343 66ZM847.503 62.048C847.503 62.5493 847.599 62.9973 847.791 63.392C847.983 63.776 848.255 64.08 848.607 64.304C848.959 64.5173 849.375 64.624 849.855 64.624C850.345 64.624 850.761 64.5173 851.103 64.304C851.444 64.08 851.705 63.776 851.887 63.392C852.079 62.9973 852.175 62.5493 852.175 62.048C852.175 61.536 852.079 61.088 851.887 60.704C851.705 60.32 851.444 60.016 851.103 59.792C850.761 59.568 850.345 59.456 849.855 59.456C849.375 59.456 848.959 59.568 848.607 59.792C848.255 60.0053 847.983 60.3093 847.791 60.704C847.599 61.088 847.503 61.536 847.503 62.048ZM854.901 63.664H856.533C856.543 64.0373 856.682 64.3307 856.949 64.544C857.215 64.7573 857.583 64.864 858.053 64.864C858.543 64.864 858.922 64.768 859.189 64.576C859.455 64.384 859.589 64.1333 859.589 63.824C859.589 63.5893 859.519 63.3973 859.381 63.248C859.242 63.088 858.981 62.96 858.597 62.864L857.189 62.544C856.495 62.3733 855.973 62.112 855.621 61.76C855.279 61.408 855.109 60.928 855.109 60.32C855.109 59.8187 855.237 59.392 855.493 59.04C855.759 58.6773 856.122 58.4 856.581 58.208C857.039 58.0053 857.562 57.904 858.149 57.904C858.735 57.904 859.247 58.0107 859.685 58.224C860.122 58.4267 860.463 58.7147 860.709 59.088C860.954 59.4613 861.077 59.904 861.077 60.416H859.445C859.434 60.0427 859.311 59.7493 859.077 59.536C858.842 59.3227 858.511 59.216 858.085 59.216C857.669 59.216 857.343 59.312 857.109 59.504C856.874 59.6853 856.757 59.936 856.757 60.256C856.757 60.736 857.114 61.0667 857.829 61.248L859.237 61.568C859.898 61.7173 860.394 61.9627 860.725 62.304C861.055 62.6347 861.221 63.0987 861.221 63.696C861.221 64.1973 861.082 64.64 860.805 65.024C860.538 65.408 860.165 65.7013 859.685 65.904C859.205 66.1067 858.645 66.208 858.005 66.208C857.055 66.208 856.298 65.9733 855.733 65.504C855.178 65.0347 854.901 64.4213 854.901 63.664Z" fill="white"/>
</g>
</g>
<defs>
<filter id="filter0_d_1_67" x="0" y="0" width="930" height="120" filterUnits="userSpaceOnUse" color-interpolation-filters="sRGB">
<feFlood flood-opacity="0" result="BackgroundImageFix"/>
<feColorMatrix in="SourceAlpha" type="matrix" values="0 0 0 0 0 0 0 0 0 0 0 0 0 0 0 0 0 0 127 0" result="hardAlpha"/>
<feOffset/>
<feGaussianBlur stdDeviation="10"/>
<feComposite in2="hardAlpha" operator="out"/>
<feColorMatrix type="matrix" values="0 0 0 0 0.499561 0 0 0 0 0.499561 0 0 0 0 0.499561 0 0 0 0.15 0"/>
<feBlend mode="normal" in2="BackgroundImageFix" result="effect1_dropShadow_1_67"/>
<feBlend mode="normal" in="SourceGraphic" in2="effect1_dropShadow_1_67" result="shape"/>
</filter>
<linearGradient id="paint0_linear_1_67" x1="48.365" y1="68.5921" x2="63.6704" y2="68.5921" gradientUnits="userSpaceOnUse">
<stop stop-color="#00AAFF"/>
<stop offset="1" stop-color="#8636F8"/>
</linearGradient>
<linearGradient id="paint1_linear_1_67" x1="56.0177" y1="77.5806" x2="56.0177" y2="59.6037" gradientUnits="userSpaceOnUse">
<stop stop-color="white" stop-opacity="0.6"/>
<stop offset="0.1085" stop-color="white" stop-opacity="0.455"/>
<stop offset="0.4332" stop-color="white" stop-opacity="0.216"/>
<stop offset="0.6639" stop-color="white" stop-opacity="0.06"/>
<stop offset="0.775" stop-color="white" stop-opacity="0"/>
</linearGradient>
<linearGradient id="paint2_linear_1_67" x1="48.365" y1="68.5921" x2="63.6704" y2="68.5921" gradientUnits="userSpaceOnUse">
<stop stop-color="#00AAFF"/>
<stop offset="1" stop-color="#8636F8"/>
</linearGradient>
<linearGradient id="paint3_linear_1_67" x1="56.0177" y1="77.5806" x2="56.0177" y2="59.6037" gradientUnits="userSpaceOnUse">
<stop stop-color="white" stop-opacity="0.6"/>
<stop offset="0.1085" stop-color="white" stop-opacity="0.455"/>
<stop offset="0.4332" stop-color="white" stop-opacity="0.216"/>
<stop offset="0.6639" stop-color="white" stop-opacity="0.06"/>
<stop offset="0.775" stop-color="white" stop-opacity="0"/>
</linearGradient>
<linearGradient id="paint4_linear_1_67" x1="47.5926" y1="57.0785" x2="70.8932" y2="55.3851" gradientUnits="userSpaceOnUse">
<stop offset="0.0226" stop-color="#8636F8"/>
<stop offset="0.3484" stop-color="#F020B3"/>
<stop offset="0.6742" stop-color="#F8475E"/>
<stop offset="1" stop-color="#FF9421"/>
</linearGradient>
<linearGradient id="paint5_linear_1_67" x1="59.0371" y1="69.1381" x2="59.0371" y2="37.6616" gradientUnits="userSpaceOnUse">
<stop stop-color="white" stop-opacity="0.6"/>
<stop offset="0.0842" stop-color="white" stop-opacity="0.455"/>
<stop offset="0.367" stop-color="white" stop-opacity="0.216"/>
<stop offset="0.568" stop-color="white" stop-opacity="0.06"/>
<stop offset="0.6648" stop-color="white" stop-opacity="0"/>
</linearGradient>
<linearGradient id="paint6_linear_1_67" x1="817.5" y1="41" x2="817.5" y2="84.2414" gradientUnits="userSpaceOnUse">
<stop stop-color="#A128FF"/>
<stop offset="1" stop-color="#6100AD"/>
</linearGradient>
<clipPath id="clip0_1_67">
<rect width="44" height="44.6769" fill="white" transform="translate(46 37.6616)"/>
</clipPath>
<clipPath id="clip1_1_67">
<rect x="751" y="36" width="133" height="48" rx="12" fill="white"/>
</clipPath>
</defs>
</svg>
